<?xml version="1.0" encoding="UTF-8" standalone="no"?>
<!DOCTYPE svg PUBLIC "-//W3C//DTD SVG 1.1//EN" "http://www.w3.org/Graphics/SVG/1.1/DTD/svg11.dtd">
<svg xmlns="http://www.w3.org/2000/svg" version="1.1" viewBox="0.00 0.00 2134.00 981.00">
<g stroke-width="2.00" fill="none" stroke-linecap="butt">
<path stroke="#b5bac5" vector-effect="non-scaling-stroke" d="
  M 1066.68 406.21
  Q 1066.13 406.71 1065.62 405.72"
/>
<path stroke="#809bb5" vector-effect="non-scaling-stroke" d="
  M 1065.62 405.72
  Q 1065.07 403.47 1064.26 401.34
  C 1063.23 398.62 1061.07 396.40 1059.53 393.71
  C 1057.67 390.47 1055.10 389.17 1052.23 387.13
  C 1046.44 383.02 1037.83 383.11 1031.30 385.03
  C 1028.70 385.79 1026.57 388.03 1024.26 389.59
  Q 1021.82 391.23 1020.45 393.13
  C 1016.12 399.11 1013.71 403.80 1014.27 411.29"
/>
<path stroke="#8e9fb2" vector-effect="non-scaling-stroke" d="
  M 1014.27 411.29
  L 1014.27 468.96"
/>
<path stroke="#809bb5" vector-effect="non-scaling-stroke" d="
  M 1014.27 468.96
  Q 1014.24 532.73 1014.06 596.50
  Q 1014.03 606.87 1021.01 615.52
  C 1025.18 620.69 1029.13 623.38 1035.98 624.07
  C 1045.51 625.01 1053.45 622.80 1058.89 614.15
  Q 1060.52 611.57 1061.97 609.49"
/>
<path stroke="#b5bac5" vector-effect="non-scaling-stroke" d="
  M 1061.97 609.49
  L 1066.44 601.32"
/>
<path stroke="#35567a" vector-effect="non-scaling-stroke" d="
  M 1065.62 405.72
  Q 1065.50 418.23 1064.98 430.75
  C 1063.58 463.98 1064.68 497.27 1064.64 530.51
  Q 1064.61 563.87 1064.77 597.26
  Q 1064.79 601.30 1061.97 609.49"
/>
<path stroke="#0f3a68" vector-effect="non-scaling-stroke" d="
  M 1014.27 468.96
  L 1014.27 411.29"
/>
<path stroke="#35567a" vector-effect="non-scaling-stroke" d="
  M 1464.44 391.07
  Q 1463.66 390.92 1463.44 389.73
  Q 1463.34 389.19 1462.80 389.06
  Q 1451.88 386.35 1441.06 389.22
  Q 1440.63 389.33 1440.39 389.70
  Q 1439.44 391.15 1437.75 391.27"
/>
<path stroke="#35567a" vector-effect="non-scaling-stroke" d="
  M 1468.87 393.78
  Q 1470.92 396.77 1474.07 398.73"
/>
<path stroke="#809bb5" vector-effect="non-scaling-stroke" d="
  M 1476.19 403.27
  Q 1477.06 406.39 1477.05 408.00
  Q 1477.00 432.57 1477.08 457.46
  A 0.88 0.87 -6.8 0 0 1478.16 458.31
  L 1492.37 454.80"
/>
<path stroke="#35567a" vector-effect="non-scaling-stroke" d="
  M 1492.37 454.80
  L 1506.77 453.10"
/>
<path stroke="#809bb5" vector-effect="non-scaling-stroke" d="
  M 1506.77 453.10
  C 1513.06 452.51 1518.31 455.13 1524.36 456.31
  Q 1530.24 457.46 1532.51 458.34
  C 1542.10 462.08 1550.94 469.91 1557.78 477.47
  C 1559.97 479.88 1560.81 482.64 1563.14 484.88
  Q 1565.86 487.49 1566.71 489.79
  Q 1569.21 496.60 1572.90 511.39
  Q 1573.92 515.44 1573.90 519.72
  Q 1573.78 553.07 1573.57 586.42
  C 1573.53 592.20 1573.90 596.60 1572.09 602.47
  Q 1570.22 608.55 1567.77 613.36
  C 1565.98 616.88 1559.74 622.44 1555.88 623.40
  C 1540.84 627.13 1531.98 622.22 1524.45 609.48
  C 1522.93 606.93 1522.09 603.08 1522.11 600.50
  Q 1522.39 566.91 1522.18 533.32
  C 1522.14 527.54 1522.98 517.44 1518.65 512.90
  C 1516.54 510.69 1514.91 508.30 1512.44 506.80
  C 1507.87 504.05 1501.77 503.99 1495.87 504.35
  C 1489.61 504.73 1486.19 507.84 1481.54 512.18
  C 1478.89 514.64 1477.23 517.07 1477.19 520.50
  Q 1476.97 539.80 1477.01 600.25
  C 1477.01 607.46 1472.27 615.55 1466.95 619.97
  C 1460.45 625.37 1450.48 625.63 1442.80 622.79
  C 1439.99 621.75 1438.12 619.65 1435.78 617.75
  Q 1432.92 615.42 1431.49 612.97
  C 1425.55 602.75 1427.00 592.54 1426.59 581.92
  C 1426.39 576.82 1426.98 571.87 1426.89 566.76"
/>
<path stroke="#35567a" vector-effect="non-scaling-stroke" d="
  M 1426.89 566.76
  Q 1428.06 529.54 1428.13 506.25
  Q 1428.22 474.14 1427.21 425.25
  Q 1427.00 415.08 1428.47 403.44
  Q 1428.63 402.16 1429.49 400.76
  Q 1430.27 399.48 1430.77 398.07"
/>
<path stroke="#35567a" vector-effect="non-scaling-stroke" d="
  M 1431.84 395.90
  Q 1434.09 395.07 1436.09 393.86
  Q 1436.64 393.53 1436.81 393.03
  Q 1437.15 392.04 1436.31 391.84"
/>
<path stroke="#b5bac5" vector-effect="non-scaling-stroke" d="
  M 1426.89 566.76
  Q 1427.06 565.41 1427.01 565.33
  A 0.95 0.93 -61.1 0 0 1425.29 565.85
  L 1425.14 571.04"
/>
<path stroke="#b5bac5" vector-effect="non-scaling-stroke" d="
  M 1506.77 453.10
  Q 1498.87 451.95 1492.37 454.80"
/>
<path stroke="#b5bac5" vector-effect="non-scaling-stroke" d="
  M 983.30 405.85
  Q 982.00 408.18 988.90 409.46"
/>
<path stroke="#35567a" vector-effect="non-scaling-stroke" d="
  M 988.90 409.46
  Q 964.39 408.35 957.50 408.55
  Q 923.45 409.53 914.00 408.90
  Q 897.11 407.76 880.18 407.89
  C 875.86 407.92 868.84 408.67 865.27 410.66
  Q 861.65 412.67 859.26 416.03"
/>
<path stroke="#b5bac5" vector-effect="non-scaling-stroke" d="
  M 859.26 416.03
  Q 859.36 415.75 859.35 415.56
  Q 859.34 415.06 858.86 415.20
  L 857.33 415.65"
/>
<path stroke="#809bb5" vector-effect="non-scaling-stroke" d="
  M 859.26 416.03
  C 854.37 422.21 852.64 427.95 852.66 436.34
  Q 853.01 557.39 852.76 593.75
  C 852.71 600.90 853.13 607.60 857.28 613.17
  C 859.54 616.20 861.59 619.44 864.97 621.27
  C 871.56 624.84 882.99 625.46 889.84 621.76
  C 898.17 617.27 902.32 608.26 902.41 598.76
  Q 902.62 575.18 902.66 551.64
  Q 902.68 544.70 903.91 542.08
  Q 906.38 536.84 913.22 536.67
  Q 922.68 536.43 952.25 536.73
  Q 959.92 536.81 967.75 532.98
  Q 971.78 531.00 974.57 527.59
  Q 977.92 523.48 980.18 518.62
  C 981.77 515.20 981.62 508.29 980.36 504.88
  C 977.88 498.14 972.99 490.40 965.94 487.75
  Q 961.04 485.91 957.25 485.91
  Q 921.03 485.84 908.25 485.98
  Q 906.03 486.01 904.31 485.44
  A 0.87 0.85 -84.3 0 1 903.72 484.71
  Q 902.68 473.84 904.78 463.07
  Q 905.80 457.86 911.25 457.85
  Q 944.51 457.79 977.74 457.71
  Q 990.38 457.68 997.81 449.59
  C 1004.55 442.26 1005.25 431.86 1001.99 422.68
  C 1000.78 419.29 997.51 416.86 995.61 413.57
  Q 995.35 413.13 994.91 412.88
  L 988.90 409.46"
/>
<path stroke="#409bb2" vector-effect="non-scaling-stroke" d="
  M 726.27 304.46
  L 721.19 304.96"
/>
<path stroke="#8e9fb2" vector-effect="non-scaling-stroke" d="
  M 721.19 304.96
  Q 656.03 310.80 603.51 321.85
  Q 565.23 329.90 554.09 332.61
  Q 506.58 344.18 460.54 360.53
  Q 450.17 364.22 441.84 367.61
  C 406.96 381.81 373.22 399.22 343.95 423.19
  Q 316.78 445.44 298.43 475.38
  Q 289.58 489.82 281.92 504.87
  A 0.05 0.05 0.0 0 0 282.00 504.93
  Q 298.04 488.00 319.52 479.14"
/>
<path stroke="#409bb2" vector-effect="non-scaling-stroke" d="
  M 319.52 479.14
  Q 356.63 465.67 390.89 484.42
  Q 408.07 493.83 418.60 509.94
  A 0.63 0.62 -42.7 0 0 419.62 509.98
  C 438.45 485.79 462.43 472.76 493.52 473.04
  C 522.95 473.30 550.56 488.92 568.38 511.70
  C 577.56 523.43 582.70 535.84 585.76 550.41
  Q 587.72 559.73 586.58 567.22"
/>
<path stroke="#7e9dad" vector-effect="non-scaling-stroke" d="
  M 586.58 567.22
  Q 581.94 575.14 574.50 575.46
  Q 569.54 575.68 565.45 571.60"
/>
<path stroke="#8e9fb2" vector-effect="non-scaling-stroke" d="
  M 565.45 571.60
  Q 562.35 568.06 561.95 564.74
  Q 559.08 540.70 541.49 522.75
  Q 522.34 503.22 496.48 501.13
  C 476.89 499.54 457.86 506.80 444.68 521.46
  Q 438.08 528.80 431.69 539.50
  Q 429.07 543.88 427.17 545.43
  C 420.78 550.66 412.10 549.76 407.44 542.77
  C 402.03 534.66 397.02 524.80 388.72 517.12
  C 349.21 480.57 288.51 512.90 283.71 562.21
  Q 283.59 563.46 283.14 564.77
  Q 282.64 566.18 282.41 567.31"
/>
<path stroke="#7e9dad" vector-effect="non-scaling-stroke" d="
  M 282.41 567.31
  Q 278.22 575.19 270.44 574.77
  Q 269.19 574.70 269.22 575.95
  C 270.90 635.98 311.42 691.63 365.02 716.44
  Q 367.83 717.74 370.66 718.51"
/>
<path stroke="#258ea8" vector-effect="non-scaling-stroke" d="
  M 370.66 718.51
  Q 382.46 724.19 399.26 728.24
  Q 437.07 737.36 473.23 731.32
  Q 494.15 727.83 507.70 722.94
  Q 546.00 709.12 576.19 679.59
  C 591.54 664.58 605.00 648.85 616.15 630.27
  A 0.64 0.64 0.0 0 0 615.57 629.30
  Q 605.13 629.78 594.46 629.61
  C 586.79 629.49 581.41 627.73 578.93 620.38"
/>
<path stroke="#7e9dad" vector-effect="non-scaling-stroke" d="
  M 578.93 620.38
  Q 576.88 612.19 582.91 604.35"
/>
<path stroke="#409bb2" vector-effect="non-scaling-stroke" d="
  M 582.91 604.35
  Q 593.65 600.08 608.98 601.81"
/>
<path stroke="#258ea8" vector-effect="non-scaling-stroke" d="
  M 608.98 601.81
  L 632.02 601.51
  A 3.44 3.44 0.0 0 0 635.09 599.52
  L 668.80 527.09
  A 0.41 0.40 -78.0 0 0 668.43 526.51
  L 640.78 526.74"
/>
<path stroke="#409bb2" vector-effect="non-scaling-stroke" d="
  M 640.78 526.74
  Q 627.26 526.71 614.63 526.75
  Q 607.34 526.78 605.89 526.48
  C 592.16 523.63 590.33 505.54 602.50 500.03
  Q 605.54 498.65 611.70 498.66
  Q 617.72 498.67 622.92 498.69"
/>
<path stroke="#258ea8" vector-effect="non-scaling-stroke" d="
  M 622.92 498.69
  L 647.70 498.76
  A 1.86 1.86 0.0 0 0 649.37 497.72
  Q 663.62 468.62 679.41 440.21
  C 681.61 436.26 684.47 432.48 687.05 428.61
  A 0.42 0.41 16.7 0 0 686.70 427.97
  L 658.14 428.00"
/>
<path stroke="#409bb2" vector-effect="non-scaling-stroke" d="
  M 658.14 428.00
  Q 637.89 427.99 618.47 428.10
  Q 612.22 428.13 609.21 426.76
  C 596.69 421.07 600.19 401.81 613.15 399.48
  Q 614.03 399.32 623.38 399.29
  Q 633.89 399.25 644.09 399.22"
/>
<path stroke="#258ea8" vector-effect="non-scaling-stroke" d="
  M 644.09 399.22
  L 672.43 399.26
  A 1.26 1.25 -75.2 0 0 673.52 398.62
  Q 699.29 351.28 728.75 306.15
  Q 729.47 305.06 728.38 304.35
  Q 727.77 303.95 726.27 304.46"
/>
<path stroke="#47ebf4" vector-effect="non-scaling-stroke" d="
  M 644.09 399.22
  C 654.17 381.67 667.75 365.92 680.22 350.08
  C 692.22 334.84 705.29 321.80 720.44 309.99
  C 721.83 308.91 723.22 307.02 725.50 306.26
  Q 726.20 306.02 726.34 305.65
  Q 726.50 305.18 726.27 304.46"
/>
<path stroke="#47ebf4" vector-effect="non-scaling-stroke" d="
  M 658.14 428.00
  Q 648.64 444.22 643.13 456.47
  Q 631.86 481.51 622.92 498.69"
/>
<path stroke="#47ebf4" vector-effect="non-scaling-stroke" d="
  M 640.78 526.74
  Q 634.01 540.56 628.35 554.09
  C 623.06 566.74 618.03 579.55 612.34 592.02
  Q 610.26 596.58 608.98 601.81"
/>
<path stroke="#a1f9fa" vector-effect="non-scaling-stroke" d="
  M 582.91 604.35
  Q 582.57 602.91 583.19 600.54
  Q 583.96 597.59 584.09 596.88
  Q 586.63 582.37 586.58 567.22"
/>
<path stroke="#b1fbff" vector-effect="non-scaling-stroke" d="
  M 319.52 479.14
  Q 319.59 478.01 320.05 477.54
  C 348.74 448.50 381.49 424.88 416.06 406.32
  Q 462.69 381.28 515.27 362.33
  Q 577.31 339.97 651.28 322.33
  Q 662.06 319.76 669.13 317.94
  Q 681.33 314.80 686.98 313.56
  Q 703.61 309.92 720.26 306.28
  Q 721.35 306.04 721.19 304.96"
/>
<path stroke="#a1f9fa" vector-effect="non-scaling-stroke" d="
  M 299.37 631.10
  Q 300.01 636.60 304.64 640.89"
/>
<path stroke="#86edf0" vector-effect="non-scaling-stroke" d="
  M 578.93 620.38
  Q 571.15 640.31 556.17 657.67
  Q 539.89 676.52 520.68 689.16
  C 477.67 717.46 421.77 726.75 370.66 718.51"
/>
<path stroke="#effdfa" vector-effect="non-scaling-stroke" d="
  M 565.45 571.60
  C 563.48 574.93 564.60 578.13 564.53 581.07
  Q 564.03 603.00 556.99 620.49
  Q 555.14 625.08 548.58 637.46
  C 545.98 642.37 542.58 646.61 539.37 651.23
  Q 535.44 656.89 531.63 660.88
  C 521.37 671.64 511.02 680.50 499.72 686.67
  Q 478.25 698.40 452.50 704.47
  Q 445.97 706.01 436.27 706.71
  Q 387.42 710.26 348.12 684.37
  C 339.40 678.62 330.98 671.27 323.13 663.86
  Q 312.47 653.78 304.64 640.89"
/>
<path stroke="#b1fbff" vector-effect="non-scaling-stroke" d="
  M 304.64 640.89
  Q 315.70 641.22 324.99 640.93
  C 337.02 640.55 334.66 622.26 325.24 622.27
  Q 318.70 622.27 312.08 622.23
  C 304.69 622.19 300.94 623.71 299.37 631.10"
/>
<path stroke="#effdfa" vector-effect="non-scaling-stroke" d="
  M 299.37 631.10
  Q 297.44 630.67 295.96 627.55
  Q 287.11 608.89 283.60 590.43
  Q 281.88 581.41 282.41 567.31"
/>
<path stroke="#809bb5" vector-effect="non-scaling-stroke" d="
  M 1638.29 420.79
  C 1636.51 407.17 1626.22 397.67 1612.26 397.42
  Q 1603.96 397.28 1596.80 401.65
  Q 1593.48 403.67 1591.00 407.18
  C 1585.69 414.67 1583.31 423.04 1586.38 432.06
  C 1587.68 435.90 1590.73 441.62 1593.39 444.35
  Q 1598.81 449.90 1607.49 450.93
  Q 1620.68 452.49 1629.34 444.14
  Q 1640.00 433.84 1638.29 420.79"
/>
<path stroke="#809bb5" vector-effect="non-scaling-stroke" d="
  M 1214.38 465.15
  Q 1213.69 465.08 1212.56 464.11
  Q 1207.92 460.11 1202.16 457.94
  Q 1197.75 456.28 1193.36 454.54
  C 1186.10 451.66 1178.85 451.20 1171.28 451.06
  C 1165.51 450.95 1159.32 452.17 1153.29 452.88
  C 1149.68 453.30 1145.67 455.32 1142.23 456.29
  C 1127.78 460.37 1115.34 469.84 1106.49 481.82
  C 1104.49 484.52 1101.18 486.70 1099.60 489.58
  Q 1097.04 494.24 1093.46 502.21
  Q 1090.24 509.39 1088.78 515.40
  Q 1084.99 531.02 1085.74 547.26
  Q 1086.36 560.82 1090.24 570.55
  Q 1095.12 582.78 1105.01 596.96
  C 1106.71 599.40 1109.47 600.64 1111.49 602.92
  Q 1118.89 611.27 1128.94 616.27
  Q 1131.63 617.60 1138.75 620.71
  Q 1143.42 622.74 1148.51 623.81
  C 1154.64 625.10 1160.90 626.67 1166.90 627.13
  C 1175.78 627.81 1182.03 626.32 1189.67 624.50
  Q 1196.27 622.93 1200.05 620.99
  Q 1207.35 617.26 1213.17 610.89
  Q 1214.69 609.24 1216.26 610.84
  C 1217.65 612.25 1218.54 614.46 1219.98 615.97
  Q 1225.17 621.40 1227.98 622.54
  Q 1240.88 627.78 1252.71 621.32
  C 1255.31 619.90 1256.68 617.70 1258.66 615.52
  C 1265.42 608.07 1264.59 596.97 1264.61 586.12
  Q 1264.70 532.19 1264.93 478.25
  Q 1264.97 468.21 1261.96 461.54
  C 1260.91 459.21 1257.94 457.85 1256.45 455.22
  Q 1255.59 453.70 1255.08 453.37
  Q 1242.18 445.05 1227.75 450.79
  C 1224.58 452.06 1222.33 454.87 1220.18 456.80
  Q 1216.99 459.65 1216.06 463.93
  Q 1215.76 465.29 1214.38 465.15"
/>
<path stroke="#8e9fb2" vector-effect="non-scaling-stroke" d="
  M 1350.32 578.55
  L 1343.78 578.23"
/>
<path stroke="#809bb5" vector-effect="non-scaling-stroke" d="
  M 1343.78 578.23
  Q 1336.98 576.85 1330.58 574.29
  Q 1327.34 573.00 1323.98 570.31
  Q 1319.95 567.08 1315.82 563.98
  C 1310.24 559.79 1300.92 561.14 1295.37 564.40
  C 1293.76 565.35 1292.24 567.22 1290.54 568.47
  Q 1288.22 570.18 1287.25 571.75
  C 1284.01 577.00 1283.63 583.04 1283.89 589.74
  C 1284.19 597.67 1290.85 605.33 1296.37 610.42
  Q 1301.33 615.00 1308.95 618.79
  Q 1320.01 624.28 1330.40 626.37
  Q 1343.99 629.10 1358.51 626.72
  Q 1385.33 622.33 1400.40 601.99
  Q 1406.57 593.66 1409.15 584.14
  Q 1413.88 566.71 1407.35 549.01
  Q 1406.15 545.76 1403.75 542.84
  C 1401.39 539.96 1400.00 537.63 1398.23 534.77
  A 1.73 1.65 -1.3 0 0 1397.54 534.14
  Q 1394.55 532.67 1392.96 529.76
  Q 1392.71 529.29 1392.24 529.04
  Q 1388.54 527.04 1385.11 524.57
  C 1380.03 520.91 1374.20 519.14 1368.55 516.80
  Q 1364.65 515.20 1359.81 514.20
  Q 1352.30 512.66 1348.26 510.93
  Q 1345.18 509.62 1342.70 507.30
  C 1339.03 503.88 1340.34 498.31 1345.75 497.91
  Q 1348.66 497.70 1350.95 497.90
  C 1353.86 498.14 1356.54 499.68 1359.46 500.79
  Q 1361.14 501.43 1362.80 502.63
  Q 1367.21 505.82 1371.74 507.03
  Q 1385.98 510.81 1395.70 501.29
  Q 1399.25 497.81 1400.76 493.39
  C 1403.04 486.72 1402.56 476.75 1398.29 471.01
  C 1393.87 465.09 1387.94 459.11 1381.04 456.61
  C 1378.31 455.62 1376.07 453.75 1373.51 453.05
  C 1367.17 451.29 1359.11 449.60 1352.39 449.38
  Q 1338.99 448.94 1326.21 452.99
  Q 1324.64 453.48 1322.50 454.70
  C 1319.48 456.41 1315.71 457.64 1313.25 459.16
  C 1309.12 461.73 1304.61 464.87 1301.70 468.83
  C 1299.67 471.60 1297.10 473.61 1295.66 476.61
  C 1293.47 481.20 1290.84 486.52 1290.17 491.60
  Q 1289.80 494.44 1289.35 497.27
  Q 1288.51 502.55 1288.68 505.81
  Q 1289.34 518.39 1296.05 529.07
  C 1297.70 531.70 1300.37 534.47 1302.37 537.37
  Q 1304.35 540.24 1308.38 542.21
  Q 1314.57 545.23 1314.85 545.41
  C 1319.29 548.07 1323.22 551.17 1328.07 552.92
  Q 1341.11 557.61 1354.21 562.12
  Q 1358.48 563.58 1360.24 567.41
  C 1363.09 573.59 1355.06 577.66 1350.32 578.55"
/>
<path stroke="#0f3a68" vector-effect="non-scaling-stroke" d="
  M 1343.78 578.23
  Q 1347.06 579.97 1350.32 578.55"
/>
<path stroke="#8e9fb2" vector-effect="non-scaling-stroke" d="
  M 1798.83 519.22
  L 1798.91 507.28"
/>
<path stroke="#809bb5" vector-effect="non-scaling-stroke" d="
  M 1798.91 507.28
  Q 1797.78 499.70 1794.99 492.56
  C 1793.63 489.08 1790.94 486.30 1788.91 482.99
  Q 1786.16 478.50 1784.13 476.29
  Q 1775.68 467.06 1766.31 460.68
  C 1762.11 457.82 1756.94 456.66 1752.15 454.57
  Q 1749.92 453.59 1746.45 452.70
  Q 1730.12 448.50 1716.27 450.04
  C 1710.61 450.67 1701.98 452.09 1695.68 454.85
  C 1690.96 456.91 1686.08 458.07 1681.99 460.55
  Q 1671.46 466.97 1663.31 476.26
  C 1661.04 478.85 1658.86 482.45 1656.34 485.40
  Q 1654.08 488.03 1652.91 490.58
  C 1649.44 498.10 1645.70 505.49 1644.12 513.48
  Q 1639.31 537.82 1643.84 562.48
  C 1645.41 571.02 1649.62 578.09 1653.36 585.78
  C 1655.57 590.32 1660.02 596.74 1663.93 599.95
  C 1667.05 602.50 1670.33 606.38 1672.56 608.27
  Q 1682.55 616.72 1694.70 621.59
  C 1698.79 623.23 1703.47 624.34 1707.96 625.53
  C 1717.92 628.18 1728.07 628.62 1738.27 627.63
  C 1744.71 627.00 1751.33 624.81 1757.73 622.89
  Q 1761.60 621.73 1765.07 619.77
  Q 1770.82 616.53 1771.27 616.29
  C 1777.67 612.78 1783.08 607.44 1788.01 602.10
  C 1794.18 595.41 1797.36 589.47 1795.52 580.61
  Q 1794.90 577.66 1792.58 574.16
  Q 1789.61 569.68 1788.42 568.32
  C 1783.10 562.20 1770.60 556.90 1762.64 562.06
  Q 1760.92 563.17 1758.68 566.27
  Q 1751.61 576.06 1740.57 579.79
  C 1732.68 582.45 1721.36 582.74 1713.62 578.54
  C 1710.30 576.74 1707.26 575.79 1704.48 573.19
  Q 1701.88 570.76 1699.29 568.31
  C 1696.26 565.46 1694.63 562.15 1693.25 558.48
  Q 1692.53 556.55 1694.60 556.60
  Q 1720.71 557.20 1745.65 556.69
  Q 1751.45 556.57 1760.67 554.01
  Q 1765.79 552.58 1771.15 549.68
  Q 1778.51 545.69 1785.76 541.50
  C 1789.00 539.63 1790.44 536.89 1792.76 534.10
  C 1796.51 529.61 1797.83 524.73 1798.83 519.22"
/>
<path stroke="#0f3a68" vector-effect="non-scaling-stroke" d="
  M 1798.91 507.28
  L 1798.83 519.22"
/>
<path stroke="#809bb5" vector-effect="non-scaling-stroke" d="
  M 1613.37 624.86
  Q 1621.39 624.38 1626.23 620.76
  Q 1633.58 615.26 1636.52 606.46
  Q 1638.13 601.64 1638.29 591.38
  C 1638.72 564.03 1637.99 536.09 1638.51 510.75
  Q 1638.76 498.62 1638.01 486.52
  C 1637.78 482.70 1636.59 476.45 1634.98 473.80
  C 1634.18 472.50 1632.38 471.37 1631.27 469.55
  Q 1629.86 467.24 1627.21 465.29
  C 1617.64 458.28 1607.72 458.70 1597.90 464.66
  Q 1594.28 466.87 1592.09 469.99
  Q 1585.96 478.71 1585.96 489.01
  Q 1585.97 541.42 1585.99 593.85
  Q 1585.99 600.41 1587.18 604.54
  Q 1588.77 610.11 1591.63 614.49
  Q 1598.98 625.72 1613.37 624.86"
/>
<path stroke="#0f3a68" vector-effect="non-scaling-stroke" d="
  M 1169.20 577.82
  Q 1174.22 580.44 1180.34 577.65"
/>
<path stroke="#809bb5" vector-effect="non-scaling-stroke" d="
  M 1180.34 577.65
  Q 1197.33 574.28 1206.36 560.19
  Q 1209.53 555.25 1210.54 549.19
  C 1212.00 540.45 1211.67 530.30 1207.33 522.37
  Q 1204.37 516.96 1200.62 513.64
  Q 1198.85 512.07 1193.58 508.75
  Q 1189.62 506.24 1185.88 505.19
  Q 1162.42 498.58 1146.00 515.72
  C 1140.74 521.21 1136.54 534.04 1136.93 541.48
  Q 1137.34 549.11 1140.19 556.20
  Q 1141.97 560.62 1145.35 564.72
  C 1151.58 572.27 1158.91 575.47 1169.20 577.82"
/>
<path stroke="#8e9fb2" vector-effect="non-scaling-stroke" d="
  M 1180.34 577.65
  Q 1174.74 579.12 1169.20 577.82"
/>
<path stroke="#809bb5" vector-effect="non-scaling-stroke" d="
  M 1720.24 516.05
  C 1728.54 515.44 1733.94 515.05 1740.50 512.62
  C 1746.28 510.47 1747.79 503.67 1741.98 500.55
  C 1735.15 496.88 1726.68 494.68 1719.48 496.38
  Q 1714.03 497.66 1708.91 499.91
  C 1705.97 501.20 1703.71 503.49 1701.02 505.40
  C 1697.29 508.05 1695.40 512.27 1693.32 516.18
  Q 1693.06 516.69 1693.63 516.70
  Q 1706.97 517.03 1720.24 516.05"
/>
<path stroke="#8e9fb2" vector-effect="non-scaling-stroke" d="
  M 339.94 617.58
  C 375.13 634.24 409.06 595.35 390.23 561.95
  C 380.61 544.88 358.98 536.42 340.74 544.92
  Q 337.89 546.25 336.38 548.17
  A 1.66 1.66 0.0 0 0 337.81 550.85
  C 340.96 550.61 344.46 550.02 347.37 550.81
  Q 353.58 552.49 357.00 558.25
  C 367.84 576.52 338.92 592.87 329.48 573.33
  C 327.96 570.20 328.29 566.70 328.53 563.24
  Q 328.57 562.71 328.04 562.59
  L 323.81 561.64
  A 1.34 1.34 0.0 0 0 322.39 562.24
  Q 315.73 573.06 317.22 585.75
  Q 319.85 608.06 339.94 617.58"
/>
<path stroke="#8e9fb2" vector-effect="non-scaling-stroke" d="
  M 478.75 550.21
  C 494.29 551.27 496.77 573.66 483.25 580.27
  C 474.62 584.49 465.15 580.50 461.91 571.32
  C 461.01 568.80 461.39 566.34 461.77 563.71
  A 0.68 0.68 0.0 0 0 461.23 562.94
  L 456.07 561.92
  A 0.69 0.68 -67.2 0 0 455.35 562.22
  Q 450.87 569.11 450.18 575.75
  Q 447.34 603.11 471.25 616.75
  C 488.63 626.67 510.38 620.26 520.98 603.95
  C 531.80 587.30 529.73 566.44 515.05 552.47
  C 503.04 541.04 482.57 536.80 468.88 548.42
  A 1.35 1.35 0.0 0 0 469.76 550.79
  C 472.74 550.77 476.20 550.04 478.75 550.21"
/>
<path stroke="#b1fbff" vector-effect="non-scaling-stroke" d="
  M 543.4950 631.3910
  A 8.78 8.78 0.0 0 0 534.8229 622.5044
  L 519.4841 622.3170
  A 8.78 8.78 0.0 0 0 510.5975 630.9891
  L 510.5850 632.0090
  A 8.78 8.78 0.0 0 0 519.2571 640.8956
  L 534.5959 641.0830
  A 8.78 8.78 0.0 0 0 543.4825 632.4109
  L 543.4950 631.3910"
/>
<path stroke="#8e9fb2" vector-effect="non-scaling-stroke" d="
  M 410.12 649.56
  C 401.93 645.65 403.78 637.05 397.88 631.89
  C 392.13 626.87 382.75 629.99 381.06 637.31
  C 377.96 650.85 388.98 664.82 399.81 670.09
  C 420.73 680.27 447.56 670.12 453.02 646.26
  C 454.70 638.90 450.97 627.67 441.35 629.73
  C 433.64 631.37 433.16 640.41 429.17 645.50
  C 424.82 651.06 416.45 652.58 410.12 649.56"
/>
<path stroke="#8e9fb2" vector-effect="non-scaling-stroke" d="
  M 372.48 596.66
  A 9.37 9.37 0.0 0 0 363.11 587.29
  A 9.37 9.37 0.0 0 0 353.74 596.66
  A 9.37 9.37 0.0 0 0 363.11 606.03
  A 9.37 9.37 0.0 0 0 372.48 596.66"
/>
<path stroke="#8e9fb2" vector-effect="non-scaling-stroke" d="
  M 504.69 596.58
  A 9.46 9.46 0.0 0 0 495.23 587.12
  A 9.46 9.46 0.0 0 0 485.77 596.58
  A 9.46 9.46 0.0 0 0 495.23 606.04
  A 9.46 9.46 0.0 0 0 504.69 596.58"
/>
</g>
<path fill="#1d3e65" d="
  M 706.66 399.43
  Q 723.69 399.55 741.25 399.42
  C 747.93 399.37 752.54 403.27 754.83 409.35
  C 757.35 416.05 753.62 423.01 747.58 426.13
  Q 745.01 427.46 740.74 427.54
  Q 730.78 427.73 721.11 427.64
  A 1.79 1.78 -72.2 0 0 719.63 428.40
  C 704.07 450.16 691.77 473.73 680.00 498.00
  A 0.75 0.74 -77.3 0 0 680.67 499.07
  Q 711.57 499.01 742.84 498.94
  Q 748.43 498.92 750.99 500.08
  C 761.81 504.98 761.40 519.68 751.12 524.86
  C 746.49 527.19 737.05 527.50 732.24 526.89
  C 728.88 526.47 725.51 526.95 723.25 526.88
  Q 713.50 526.58 703.76 526.83
  Q 701.18 526.90 698.58 527.02
  A 0.94 0.92 -77.3 0 0 697.79 527.53
  C 694.57 534.01 691.81 542.27 689.63 547.43
  Q 678.35 574.09 666.04 600.28
  Q 665.86 600.66 665.84 600.97
  A 0.60 0.60 0.0 0 0 666.44 601.60
  Q 693.09 601.54 719.50 601.68
  Q 727.99 601.72 732.30 609.20
  C 738.01 619.11 729.18 629.12 719.00 629.09
  Q 685.24 629.01 652.08 628.95
  A 3.59 3.58 -74.3 0 0 649.02 630.67
  L 635.27 653.31
  A 1.26 1.26 0.0 0 0 636.35 655.23
  Q 657.39 655.21 678.72 655.23
  Q 683.05 655.24 685.57 656.51
  C 696.47 662.01 695.12 678.25 683.81 682.29
  Q 681.15 683.24 674.58 683.25
  Q 643.96 683.30 613.95 683.21
  A 3.01 2.99 -67.9 0 0 611.75 684.15
  C 589.45 707.92 561.80 729.16 532.03 742.61
  Q 468.55 771.28 399.79 757.41
  Q 389.86 755.41 380.45 752.38
  C 313.51 730.78 262.84 678.46 246.15 609.78
  C 227.41 532.65 262.57 460.34 318.37 408.62
  Q 341.96 386.76 375.02 368.74
  Q 413.10 347.99 450.54 334.56
  Q 502.19 316.02 555.75 303.98
  Q 630.71 287.12 698.56 278.95
  C 713.37 277.17 728.97 276.36 744.17 275.27
  Q 750.96 274.78 754.24 275.96
  Q 760.37 278.18 763.42 284.61
  C 766.72 291.56 764.09 295.81 760.19 302.85
  C 743.91 332.24 726.41 360.90 710.02 390.24
  Q 707.89 394.06 705.88 398.17
  A 0.87 0.87 0.0 0 0 706.66 399.43
  Z
  M 726.27 304.46
  L 721.19 304.96
  Q 656.03 310.80 603.51 321.85
  Q 565.23 329.90 554.09 332.61
  Q 506.58 344.18 460.54 360.53
  Q 450.17 364.22 441.84 367.61
  C 406.96 381.81 373.22 399.22 343.95 423.19
  Q 316.78 445.44 298.43 475.38
  Q 289.58 489.82 281.92 504.87
  A 0.05 0.05 0.0 0 0 282.00 504.93
  Q 298.04 488.00 319.52 479.14
  Q 356.63 465.67 390.89 484.42
  Q 408.07 493.83 418.60 509.94
  A 0.63 0.62 -42.7 0 0 419.62 509.98
  C 438.45 485.79 462.43 472.76 493.52 473.04
  C 522.95 473.30 550.56 488.92 568.38 511.70
  C 577.56 523.43 582.70 535.84 585.76 550.41
  Q 587.72 559.73 586.58 567.22
  Q 581.94 575.14 574.50 575.46
  Q 569.54 575.68 565.45 571.60
  Q 562.35 568.06 561.95 564.74
  Q 559.08 540.70 541.49 522.75
  Q 522.34 503.22 496.48 501.13
  C 476.89 499.54 457.86 506.80 444.68 521.46
  Q 438.08 528.80 431.69 539.50
  Q 429.07 543.88 427.17 545.43
  C 420.78 550.66 412.10 549.76 407.44 542.77
  C 402.03 534.66 397.02 524.80 388.72 517.12
  C 349.21 480.57 288.51 512.90 283.71 562.21
  Q 283.59 563.46 283.14 564.77
  Q 282.64 566.18 282.41 567.31
  Q 278.22 575.19 270.44 574.77
  Q 269.19 574.70 269.22 575.95
  C 270.90 635.98 311.42 691.63 365.02 716.44
  Q 367.83 717.74 370.66 718.51
  Q 382.46 724.19 399.26 728.24
  Q 437.07 737.36 473.23 731.32
  Q 494.15 727.83 507.70 722.94
  Q 546.00 709.12 576.19 679.59
  C 591.54 664.58 605.00 648.85 616.15 630.27
  A 0.64 0.64 0.0 0 0 615.57 629.30
  Q 605.13 629.78 594.46 629.61
  C 586.79 629.49 581.41 627.73 578.93 620.38
  Q 576.88 612.19 582.91 604.35
  Q 593.65 600.08 608.98 601.81
  L 632.02 601.51
  A 3.44 3.44 0.0 0 0 635.09 599.52
  L 668.80 527.09
  A 0.41 0.40 -78.0 0 0 668.43 526.51
  L 640.78 526.74
  Q 627.26 526.71 614.63 526.75
  Q 607.34 526.78 605.89 526.48
  C 592.16 523.63 590.33 505.54 602.50 500.03
  Q 605.54 498.65 611.70 498.66
  Q 617.72 498.67 622.92 498.69
  L 647.70 498.76
  A 1.86 1.86 0.0 0 0 649.37 497.72
  Q 663.62 468.62 679.41 440.21
  C 681.61 436.26 684.47 432.48 687.05 428.61
  A 0.42 0.41 16.7 0 0 686.70 427.97
  L 658.14 428.00
  Q 637.89 427.99 618.47 428.10
  Q 612.22 428.13 609.21 426.76
  C 596.69 421.07 600.19 401.81 613.15 399.48
  Q 614.03 399.32 623.38 399.29
  Q 633.89 399.25 644.09 399.22
  L 672.43 399.26
  A 1.26 1.25 -75.2 0 0 673.52 398.62
  Q 699.29 351.28 728.75 306.15
  Q 729.47 305.06 728.38 304.35
  Q 727.77 303.95 726.27 304.46
  Z"
/>
<path fill="#2cdeea" d="
  M 644.09 399.22
  C 654.17 381.67 667.75 365.92 680.22 350.08
  C 692.22 334.84 705.29 321.80 720.44 309.99
  C 721.83 308.91 723.22 307.02 725.50 306.26
  Q 726.20 306.02 726.34 305.65
  Q 726.50 305.18 726.27 304.46
  Q 727.77 303.95 728.38 304.35
  Q 729.47 305.06 728.75 306.15
  Q 699.29 351.28 673.52 398.62
  A 1.26 1.25 -75.2 0 1 672.43 399.26
  L 644.09 399.22
  Z"
/>
<path fill="#62f7fe" d="
  M 726.27 304.46
  Q 726.50 305.18 726.34 305.65
  Q 726.20 306.02 725.50 306.26
  C 723.22 307.02 721.83 308.91 720.44 309.99
  C 705.29 321.80 692.22 334.84 680.22 350.08
  C 667.75 365.92 654.17 381.67 644.09 399.22
  Q 633.89 399.25 623.38 399.29
  Q 614.03 399.32 613.15 399.48
  C 600.19 401.81 596.69 421.07 609.21 426.76
  Q 612.22 428.13 618.47 428.10
  Q 637.89 427.99 658.14 428.00
  Q 648.64 444.22 643.13 456.47
  Q 631.86 481.51 622.92 498.69
  Q 617.72 498.67 611.70 498.66
  Q 605.54 498.65 602.50 500.03
  C 590.33 505.54 592.16 523.63 605.89 526.48
  Q 607.34 526.78 614.63 526.75
  Q 627.26 526.71 640.78 526.74
  Q 634.01 540.56 628.35 554.09
  C 623.06 566.74 618.03 579.55 612.34 592.02
  Q 610.26 596.58 608.98 601.81
  Q 593.65 600.08 582.91 604.35
  Q 582.57 602.91 583.19 600.54
  Q 583.96 597.59 584.09 596.88
  Q 586.63 582.37 586.58 567.22
  Q 587.72 559.73 585.76 550.41
  C 582.70 535.84 577.56 523.43 568.38 511.70
  C 550.56 488.92 522.95 473.30 493.52 473.04
  C 462.43 472.76 438.45 485.79 419.62 509.98
  A 0.63 0.62 -42.7 0 1 418.60 509.94
  Q 408.07 493.83 390.89 484.42
  Q 356.63 465.67 319.52 479.14
  Q 319.59 478.01 320.05 477.54
  C 348.74 448.50 381.49 424.88 416.06 406.32
  Q 462.69 381.28 515.27 362.33
  Q 577.31 339.97 651.28 322.33
  Q 662.06 319.76 669.13 317.94
  Q 681.33 314.80 686.98 313.56
  Q 703.61 309.92 720.26 306.28
  Q 721.35 306.04 721.19 304.96
  L 726.27 304.46
  Z"
/>
<path fill="#ffffff" d="
  M 721.19 304.96
  Q 721.35 306.04 720.26 306.28
  Q 703.61 309.92 686.98 313.56
  Q 681.33 314.80 669.13 317.94
  Q 662.06 319.76 651.28 322.33
  Q 577.31 339.97 515.27 362.33
  Q 462.69 381.28 416.06 406.32
  C 381.49 424.88 348.74 448.50 320.05 477.54
  Q 319.59 478.01 319.52 479.14
  Q 298.04 488.00 282.00 504.93
  A 0.05 0.05 0.0 0 1 281.92 504.87
  Q 289.58 489.82 298.43 475.38
  Q 316.78 445.44 343.95 423.19
  C 373.22 399.22 406.96 381.81 441.84 367.61
  Q 450.17 364.22 460.54 360.53
  Q 506.58 344.18 554.09 332.61
  Q 565.23 329.90 603.51 321.85
  Q 656.03 310.80 721.19 304.96
  Z"
/>
<path fill="#ffffff" d="
  M 1066.68 406.21
  Q 1066.13 406.71 1065.62 405.72
  Q 1065.07 403.47 1064.26 401.34
  C 1063.23 398.62 1061.07 396.40 1059.53 393.71
  C 1057.67 390.47 1055.10 389.17 1052.23 387.13
  C 1046.44 383.02 1037.83 383.11 1031.30 385.03
  C 1028.70 385.79 1026.57 388.03 1024.26 389.59
  Q 1021.82 391.23 1020.45 393.13
  C 1016.12 399.11 1013.71 403.80 1014.27 411.29
  L 1014.27 468.96
  Q 1014.24 532.73 1014.06 596.50
  Q 1014.03 606.87 1021.01 615.52
  C 1025.18 620.69 1029.13 623.38 1035.98 624.07
  C 1045.51 625.01 1053.45 622.80 1058.89 614.15
  Q 1060.52 611.57 1061.97 609.49
  L 1066.44 601.32
  Q 1065.75 606.70 1064.55 608.54
  C 1059.22 616.74 1054.71 623.55 1045.15 625.24
  Q 1036.37 626.79 1027.63 623.35
  C 1023.33 621.66 1021.46 619.16 1018.53 615.19
  Q 1012.91 607.57 1012.93 596.75
  C 1013.07 535.21 1012.42 492.33 1013.00 453.74
  C 1013.23 438.29 1012.93 425.10 1012.85 410.75
  C 1012.82 404.20 1013.61 398.94 1018.04 393.86
  Q 1022.78 388.41 1029.58 383.88
  C 1035.57 379.88 1040.58 380.62 1047.32 383.03
  Q 1053.05 385.08 1057.61 389.18
  C 1060.18 391.49 1062.14 395.13 1064.42 398.08
  Q 1066.38 400.61 1066.68 406.21
  Z"
/>
<path fill="#00366a" d="
  M 1065.62 405.72
  Q 1065.50 418.23 1064.98 430.75
  C 1063.58 463.98 1064.68 497.27 1064.64 530.51
  Q 1064.61 563.87 1064.77 597.26
  Q 1064.79 601.30 1061.97 609.49
  Q 1060.52 611.57 1058.89 614.15
  C 1053.45 622.80 1045.51 625.01 1035.98 624.07
  C 1029.13 623.38 1025.18 620.69 1021.01 615.52
  Q 1014.03 606.87 1014.06 596.50
  Q 1014.24 532.73 1014.27 468.96
  L 1014.27 411.29
  C 1013.71 403.80 1016.12 399.11 1020.45 393.13
  Q 1021.82 391.23 1024.26 389.59
  C 1026.57 388.03 1028.70 385.79 1031.30 385.03
  C 1037.83 383.11 1046.44 383.02 1052.23 387.13
  C 1055.10 389.17 1057.67 390.47 1059.53 393.71
  C 1061.07 396.40 1063.23 398.62 1064.26 401.34
  Q 1065.07 403.47 1065.62 405.72
  Z"
/>
<path fill="#6a758a" d="
  M 1464.44 391.07
  Q 1463.66 390.92 1463.44 389.73
  Q 1463.34 389.19 1462.80 389.06
  Q 1451.88 386.35 1441.06 389.22
  Q 1440.63 389.33 1440.39 389.70
  Q 1439.44 391.15 1437.75 391.27
  L 1437.73 385.67
  A 0.53 0.53 0.0 0 1 1438.26 385.14
  L 1463.79 385.20
  Q 1464.46 385.20 1464.46 385.88
  L 1464.44 391.07
  Z"
/>
<path fill="#00366a" d="
  M 1464.44 391.07
  L 1464.58 393.15
  Q 1464.62 393.73 1465.20 393.74
  L 1468.87 393.78
  Q 1470.92 396.77 1474.07 398.73
  Q 1473.28 404.58 1476.19 403.27
  Q 1477.06 406.39 1477.05 408.00
  Q 1477.00 432.57 1477.08 457.46
  A 0.88 0.87 -6.8 0 0 1478.16 458.31
  L 1492.37 454.80
  L 1506.77 453.10
  C 1513.06 452.51 1518.31 455.13 1524.36 456.31
  Q 1530.24 457.46 1532.51 458.34
  C 1542.10 462.08 1550.94 469.91 1557.78 477.47
  C 1559.97 479.88 1560.81 482.64 1563.14 484.88
  Q 1565.86 487.49 1566.71 489.79
  Q 1569.21 496.60 1572.90 511.39
  Q 1573.92 515.44 1573.90 519.72
  Q 1573.78 553.07 1573.57 586.42
  C 1573.53 592.20 1573.90 596.60 1572.09 602.47
  Q 1570.22 608.55 1567.77 613.36
  C 1565.98 616.88 1559.74 622.44 1555.88 623.40
  C 1540.84 627.13 1531.98 622.22 1524.45 609.48
  C 1522.93 606.93 1522.09 603.08 1522.11 600.50
  Q 1522.39 566.91 1522.18 533.32
  C 1522.14 527.54 1522.98 517.44 1518.65 512.90
  C 1516.54 510.69 1514.91 508.30 1512.44 506.80
  C 1507.87 504.05 1501.77 503.99 1495.87 504.35
  C 1489.61 504.73 1486.19 507.84 1481.54 512.18
  C 1478.89 514.64 1477.23 517.07 1477.19 520.50
  Q 1476.97 539.80 1477.01 600.25
  C 1477.01 607.46 1472.27 615.55 1466.95 619.97
  C 1460.45 625.37 1450.48 625.63 1442.80 622.79
  C 1439.99 621.75 1438.12 619.65 1435.78 617.75
  Q 1432.92 615.42 1431.49 612.97
  C 1425.55 602.75 1427.00 592.54 1426.59 581.92
  C 1426.39 576.82 1426.98 571.87 1426.89 566.76
  Q 1428.06 529.54 1428.13 506.25
  Q 1428.22 474.14 1427.21 425.25
  Q 1427.00 415.08 1428.47 403.44
  Q 1428.63 402.16 1429.49 400.76
  Q 1430.27 399.48 1430.77 398.07
  Q 1431.51 397.84 1431.84 395.90
  Q 1434.09 395.07 1436.09 393.86
  Q 1436.64 393.53 1436.81 393.03
  Q 1437.15 392.04 1436.31 391.84
  Q 1437.21 391.91 1437.75 391.27
  Q 1439.44 391.15 1440.39 389.70
  Q 1440.63 389.33 1441.06 389.22
  Q 1451.88 386.35 1462.80 389.06
  Q 1463.34 389.19 1463.44 389.73
  Q 1463.66 390.92 1464.44 391.07
  Z"
/>
<path fill="#6a758a" d="
  M 1436.31 391.84
  Q 1437.15 392.04 1436.81 393.03
  Q 1436.64 393.53 1436.09 393.86
  Q 1434.09 395.07 1431.84 395.90
  L 1432.32 392.60
  Q 1432.40 392.05 1432.95 392.02
  L 1436.31 391.84
  Z"
/>
<path fill="#6a758a" d="
  M 1468.87 393.78
  L 1473.47 393.77
  Q 1473.99 393.77 1474.00 394.28
  L 1474.07 398.73
  Q 1470.92 396.77 1468.87 393.78
  Z"
/>
<path fill="#ffffff" d="
  M 1628.83 446.58
  C 1626.17 449.12 1624.40 450.75 1620.65 451.35
  C 1611.58 452.80 1601.96 453.58 1594.47 447.04
  Q 1582.50 436.60 1583.91 420.27
  Q 1584.33 415.40 1586.44 411.70
  C 1588.81 407.53 1591.17 403.76 1595.29 401.16
  Q 1604.48 395.38 1614.49 396.11
  C 1623.19 396.75 1627.33 400.62 1633.83 404.58
  A 1.65 1.60 -87.7 0 1 1634.45 405.27
  Q 1638.85 414.46 1640.30 418.99
  C 1643.34 428.49 1635.62 440.15 1628.83 446.58
  Z
  M 1638.29 420.79
  C 1636.51 407.17 1626.22 397.67 1612.26 397.42
  Q 1603.96 397.28 1596.80 401.65
  Q 1593.48 403.67 1591.00 407.18
  C 1585.69 414.67 1583.31 423.04 1586.38 432.06
  C 1587.68 435.90 1590.73 441.62 1593.39 444.35
  Q 1598.81 449.90 1607.49 450.93
  Q 1620.68 452.49 1629.34 444.14
  Q 1640.00 433.84 1638.29 420.79
  Z"
/>
<path fill="#00366a" d="
  M 1638.29 420.79
  Q 1640.00 433.84 1629.34 444.14
  Q 1620.68 452.49 1607.49 450.93
  Q 1598.81 449.90 1593.39 444.35
  C 1590.73 441.62 1587.68 435.90 1586.38 432.06
  C 1583.31 423.04 1585.69 414.67 1591.00 407.18
  Q 1593.48 403.67 1596.80 401.65
  Q 1603.96 397.28 1612.26 397.42
  C 1626.22 397.67 1636.51 407.17 1638.29 420.79
  Z"
/>
<path fill="#6a758a" d="
  M 1430.77 398.07
  Q 1430.27 399.48 1429.49 400.76
  Q 1428.63 402.16 1428.47 403.44
  Q 1427.00 415.08 1427.21 425.25
  Q 1428.22 474.14 1428.13 506.25
  Q 1428.06 529.54 1426.89 566.76
  Q 1427.06 565.41 1427.01 565.33
  A 0.95 0.93 -61.1 0 0 1425.29 565.85
  L 1425.14 571.04
  Q 1425.01 489.89 1425.26 408.75
  Q 1425.28 401.51 1430.77 398.07
  Z"
/>
<path fill="#ffffff" d="
  M 1476.19 403.27
  L 1477.60 403.97
  Q 1477.96 404.15 1477.97 404.54
  C 1478.06 407.99 1478.71 411.68 1478.71 414.84
  Q 1478.71 435.50 1478.78 456.16
  Q 1478.78 456.67 1479.29 456.76
  C 1482.11 457.24 1482.88 456.57 1485.05 454.75
  C 1486.13 453.85 1487.84 454.07 1489.00 453.68
  C 1502.84 449.02 1514.95 451.27 1528.32 455.58
  C 1540.47 459.49 1549.44 465.98 1557.27 475.73
  Q 1561.69 481.24 1566.17 486.72
  C 1569.62 490.95 1570.95 498.40 1572.41 503.62
  C 1574.41 510.83 1574.60 518.81 1574.62 526.27
  Q 1574.73 578.68 1574.44 596.01
  Q 1574.18 611.69 1562.42 621.33
  Q 1558.76 624.34 1554.15 625.43
  Q 1536.47 629.62 1525.30 614.17
  C 1522.40 610.16 1522.69 607.00 1521.44 602.84
  Q 1520.72 600.43 1520.73 599.03
  Q 1520.92 552.10 1520.52 528.00
  Q 1520.44 523.03 1518.72 517.58
  C 1516.88 511.73 1511.55 507.64 1505.71 506.46
  Q 1492.19 503.73 1482.55 512.90
  C 1478.58 516.68 1478.61 520.24 1478.56 525.50
  Q 1478.19 562.06 1478.25 598.63
  C 1478.27 612.21 1469.69 622.67 1456.80 626.00
  C 1448.88 628.05 1439.71 624.12 1434.23 618.56
  Q 1424.53 608.72 1424.76 594.75
  Q 1424.96 582.89 1425.14 571.04
  L 1425.29 565.85
  A 0.95 0.93 -61.1 0 1 1427.01 565.33
  Q 1427.06 565.41 1426.89 566.76
  C 1426.98 571.87 1426.39 576.82 1426.59 581.92
  C 1427.00 592.54 1425.55 602.75 1431.49 612.97
  Q 1432.92 615.42 1435.78 617.75
  C 1438.12 619.65 1439.99 621.75 1442.80 622.79
  C 1450.48 625.63 1460.45 625.37 1466.95 619.97
  C 1472.27 615.55 1477.01 607.46 1477.01 600.25
  Q 1476.97 539.80 1477.19 520.50
  C 1477.23 517.07 1478.89 514.64 1481.54 512.18
  C 1486.19 507.84 1489.61 504.73 1495.87 504.35
  C 1501.77 503.99 1507.87 504.05 1512.44 506.80
  C 1514.91 508.30 1516.54 510.69 1518.65 512.90
  C 1522.98 517.44 1522.14 527.54 1522.18 533.32
  Q 1522.39 566.91 1522.11 600.50
  C 1522.09 603.08 1522.93 606.93 1524.45 609.48
  C 1531.98 622.22 1540.84 627.13 1555.88 623.40
  C 1559.74 622.44 1565.98 616.88 1567.77 613.36
  Q 1570.22 608.55 1572.09 602.47
  C 1573.90 596.60 1573.53 592.20 1573.57 586.42
  Q 1573.78 553.07 1573.90 519.72
  Q 1573.92 515.44 1572.90 511.39
  Q 1569.21 496.60 1566.71 489.79
  Q 1565.86 487.49 1563.14 484.88
  C 1560.81 482.64 1559.97 479.88 1557.78 477.47
  C 1550.94 469.91 1542.10 462.08 1532.51 458.34
  Q 1530.24 457.46 1524.36 456.31
  C 1518.31 455.13 1513.06 452.51 1506.77 453.10
  Q 1498.87 451.95 1492.37 454.80
  L 1478.16 458.31
  A 0.88 0.87 -6.8 0 1 1477.08 457.46
  Q 1477.00 432.57 1477.05 408.00
  Q 1477.06 406.39 1476.19 403.27
  Z"
/>
<path fill="#6a758a" d="
  M 983.30 405.85
  Q 982.00 408.18 988.90 409.46
  Q 964.39 408.35 957.50 408.55
  Q 923.45 409.53 914.00 408.90
  Q 897.11 407.76 880.18 407.89
  C 875.86 407.92 868.84 408.67 865.27 410.66
  Q 861.65 412.67 859.26 416.03
  Q 859.36 415.75 859.35 415.56
  Q 859.34 415.06 858.86 415.20
  L 857.33 415.65
  Q 862.20 410.31 868.54 407.05
  C 870.87 405.84 872.70 405.94 875.25 405.93
  Q 929.57 405.86 983.30 405.85
  Z"
/>
<path fill="#6a758a" d="
  M 1065.62 405.72
  Q 1066.13 406.71 1066.68 406.21
  L 1066.74 410.31
  Q 1066.75 410.73 1066.98 411.07
  Q 1067.29 411.52 1066.95 411.92
  Q 1066.61 412.32 1066.61 412.85
  L 1066.44 601.32
  L 1061.97 609.49
  Q 1064.79 601.30 1064.77 597.26
  Q 1064.61 563.87 1064.64 530.51
  C 1064.68 497.27 1063.58 463.98 1064.98 430.75
  Q 1065.50 418.23 1065.62 405.72
  Z"
/>
<path fill="#ffffff" d="
  M 983.30 405.85
  Q 985.63 406.48 987.61 407.07
  C 992.63 408.56 998.52 414.65 1001.32 418.44
  C 1005.34 423.89 1005.06 431.15 1004.31 437.73
  C 1003.53 444.54 1000.83 449.53 995.77 453.86
  C 989.90 458.89 976.23 459.46 968.86 459.32
  C 950.35 458.96 931.77 459.22 913.26 459.27
  Q 909.98 459.27 907.74 460.49
  A 1.30 1.30 0.0 0 0 907.12 461.29
  Q 904.59 471.36 904.58 481.61
  C 904.58 483.38 905.68 484.73 907.38 484.73
  Q 930.19 484.62 953.00 484.68
  Q 961.68 484.71 970.02 487.00
  A 1.68 1.67 77.7 0 1 970.84 487.53
  C 973.88 491.13 977.66 494.50 979.56 498.49
  C 984.73 509.27 983.37 519.22 975.78 528.39
  Q 972.89 531.88 968.93 534.14
  Q 960.60 538.89 950.84 538.92
  C 935.45 538.96 921.00 540.10 912.51 539.59
  Q 905.21 539.15 904.77 545.70
  C 903.80 560.27 904.52 575.21 904.55 589.83
  Q 904.58 601.70 903.33 606.05
  C 898.06 624.35 879.34 630.58 863.21 622.03
  Q 861.54 621.15 860.10 619.14
  C 858.37 616.71 856.01 614.74 854.71 612.26
  Q 851.25 605.64 851.25 599.25
  Q 851.31 516.63 851.27 434.01
  Q 851.27 424.91 857.33 415.65
  L 858.86 415.20
  Q 859.34 415.06 859.35 415.56
  Q 859.36 415.75 859.26 416.03
  C 854.37 422.21 852.64 427.95 852.66 436.34
  Q 853.01 557.39 852.76 593.75
  C 852.71 600.90 853.13 607.60 857.28 613.17
  C 859.54 616.20 861.59 619.44 864.97 621.27
  C 871.56 624.84 882.99 625.46 889.84 621.76
  C 898.17 617.27 902.32 608.26 902.41 598.76
  Q 902.62 575.18 902.66 551.64
  Q 902.68 544.70 903.91 542.08
  Q 906.38 536.84 913.22 536.67
  Q 922.68 536.43 952.25 536.73
  Q 959.92 536.81 967.75 532.98
  Q 971.78 531.00 974.57 527.59
  Q 977.92 523.48 980.18 518.62
  C 981.77 515.20 981.62 508.29 980.36 504.88
  C 977.88 498.14 972.99 490.40 965.94 487.75
  Q 961.04 485.91 957.25 485.91
  Q 921.03 485.84 908.25 485.98
  Q 906.03 486.01 904.31 485.44
  A 0.87 0.85 -84.3 0 1 903.72 484.71
  Q 902.68 473.84 904.78 463.07
  Q 905.80 457.86 911.25 457.85
  Q 944.51 457.79 977.74 457.71
  Q 990.38 457.68 997.81 449.59
  C 1004.55 442.26 1005.25 431.86 1001.99 422.68
  C 1000.78 419.29 997.51 416.86 995.61 413.57
  Q 995.35 413.13 994.91 412.88
  L 988.90 409.46
  Q 982.00 408.18 983.30 405.85
  Z"
/>
<path fill="#00366a" d="
  M 988.90 409.46
  L 994.91 412.88
  Q 995.35 413.13 995.61 413.57
  C 997.51 416.86 1000.78 419.29 1001.99 422.68
  C 1005.25 431.86 1004.55 442.26 997.81 449.59
  Q 990.38 457.68 977.74 457.71
  Q 944.51 457.79 911.25 457.85
  Q 905.80 457.86 904.78 463.07
  Q 902.68 473.84 903.72 484.71
  A 0.87 0.85 -84.3 0 0 904.31 485.44
  Q 906.03 486.01 908.25 485.98
  Q 921.03 485.84 957.25 485.91
  Q 961.04 485.91 965.94 487.75
  C 972.99 490.40 977.88 498.14 980.36 504.88
  C 981.62 508.29 981.77 515.20 980.18 518.62
  Q 977.92 523.48 974.57 527.59
  Q 971.78 531.00 967.75 532.98
  Q 959.92 536.81 952.25 536.73
  Q 922.68 536.43 913.22 536.67
  Q 906.38 536.84 903.91 542.08
  Q 902.68 544.70 902.66 551.64
  Q 902.62 575.18 902.41 598.76
  C 902.32 608.26 898.17 617.27 889.84 621.76
  C 882.99 625.46 871.56 624.84 864.97 621.27
  C 861.59 619.44 859.54 616.20 857.28 613.17
  C 853.13 607.60 852.71 600.90 852.76 593.75
  Q 853.01 557.39 852.66 436.34
  C 852.64 427.95 854.37 422.21 859.26 416.03
  Q 861.65 412.67 865.27 410.66
  C 868.84 408.67 875.86 407.92 880.18 407.89
  Q 897.11 407.76 914.00 408.90
  Q 923.45 409.53 957.50 408.55
  Q 964.39 408.35 988.90 409.46
  Z"
/>
<path fill="#1d3e65" d="
  M 1014.27 411.29
  L 1014.27 468.96
  L 1014.27 411.29
  Z"
/>
<path fill="#2cdeea" d="
  M 658.14 428.00
  L 686.70 427.97
  A 0.42 0.41 16.7 0 1 687.05 428.61
  C 684.47 432.48 681.61 436.26 679.41 440.21
  Q 663.62 468.62 649.37 497.72
  A 1.86 1.86 0.0 0 1 647.70 498.76
  L 622.92 498.69
  Q 631.86 481.51 643.13 456.47
  Q 648.64 444.22 658.14 428.00
  Z"
/>
<path fill="#ffffff" d="
  M 1085.99 522.01
  C 1088.58 508.02 1092.98 495.66 1101.93 484.58
  C 1109.47 475.24 1118.81 464.05 1129.61 459.29
  Q 1138.18 455.51 1147.05 452.53
  C 1151.92 450.89 1157.12 450.27 1162.26 449.44
  C 1164.10 449.14 1166.57 447.72 1169.12 448.43
  Q 1171.41 449.07 1173.53 449.21
  C 1178.39 449.52 1183.15 450.43 1187.98 451.05
  C 1192.40 451.61 1196.40 453.31 1200.75 454.42
  C 1201.64 454.65 1202.02 455.02 1202.41 455.80
  A 1.50 1.45 -0.9 0 0 1203.09 456.44
  Q 1208.36 458.88 1211.26 460.70
  Q 1213.84 462.31 1215.69 460.21
  Q 1218.84 456.64 1221.15 452.52
  Q 1221.40 452.08 1221.86 451.86
  C 1231.24 447.45 1238.70 443.61 1249.11 448.47
  C 1259.96 453.55 1266.58 463.49 1266.52 475.75
  Q 1266.22 532.75 1266.51 589.75
  Q 1266.53 595.23 1265.30 603.21
  Q 1262.93 618.59 1248.29 624.85
  C 1238.40 629.08 1226.85 625.09 1219.62 617.92
  C 1216.71 615.03 1213.67 613.69 1210.27 616.30
  C 1199.58 624.49 1185.95 628.28 1172.73 628.76
  C 1158.08 629.29 1142.64 624.65 1129.44 617.96
  Q 1120.58 613.47 1113.06 606.66
  Q 1099.13 594.04 1091.54 578.71
  Q 1088.04 571.63 1086.12 561.25
  Q 1084.07 550.18 1083.86 548.78
  Q 1082.90 542.46 1083.33 536.04
  C 1083.63 531.63 1085.12 526.73 1085.99 522.01
  Z
  M 1214.38 465.15
  Q 1213.69 465.08 1212.56 464.11
  Q 1207.92 460.11 1202.16 457.94
  Q 1197.75 456.28 1193.36 454.54
  C 1186.10 451.66 1178.85 451.20 1171.28 451.06
  C 1165.51 450.95 1159.32 452.17 1153.29 452.88
  C 1149.68 453.30 1145.67 455.32 1142.23 456.29
  C 1127.78 460.37 1115.34 469.84 1106.49 481.82
  C 1104.49 484.52 1101.18 486.70 1099.60 489.58
  Q 1097.04 494.24 1093.46 502.21
  Q 1090.24 509.39 1088.78 515.40
  Q 1084.99 531.02 1085.74 547.26
  Q 1086.36 560.82 1090.24 570.55
  Q 1095.12 582.78 1105.01 596.96
  C 1106.71 599.40 1109.47 600.64 1111.49 602.92
  Q 1118.89 611.27 1128.94 616.27
  Q 1131.63 617.60 1138.75 620.71
  Q 1143.42 622.74 1148.51 623.81
  C 1154.64 625.10 1160.90 626.67 1166.90 627.13
  C 1175.78 627.81 1182.03 626.32 1189.67 624.50
  Q 1196.27 622.93 1200.05 620.99
  Q 1207.35 617.26 1213.17 610.89
  Q 1214.69 609.24 1216.26 610.84
  C 1217.65 612.25 1218.54 614.46 1219.98 615.97
  Q 1225.17 621.40 1227.98 622.54
  Q 1240.88 627.78 1252.71 621.32
  C 1255.31 619.90 1256.68 617.70 1258.66 615.52
  C 1265.42 608.07 1264.59 596.97 1264.61 586.12
  Q 1264.70 532.19 1264.93 478.25
  Q 1264.97 468.21 1261.96 461.54
  C 1260.91 459.21 1257.94 457.85 1256.45 455.22
  Q 1255.59 453.70 1255.08 453.37
  Q 1242.18 445.05 1227.75 450.79
  C 1224.58 452.06 1222.33 454.87 1220.18 456.80
  Q 1216.99 459.65 1216.06 463.93
  Q 1215.76 465.29 1214.38 465.15
  Z"
/>
<path fill="#ffffff" d="
  M 1339.01 575.37
  C 1343.38 576.53 1349.08 577.54 1353.18 575.92
  C 1360.08 573.20 1357.69 566.11 1352.54 563.22
  C 1348.52 560.96 1342.86 559.67 1338.39 558.39
  Q 1337.39 558.11 1333.80 556.46
  C 1331.37 555.35 1329.14 555.62 1326.86 554.39
  Q 1311.14 545.85 1306.46 542.27
  C 1290.61 530.15 1284.48 511.21 1288.16 491.93
  Q 1288.88 488.19 1290.94 483.62
  C 1292.57 480.02 1294.06 476.28 1296.20 473.14
  C 1305.06 460.12 1320.22 452.34 1335.00 448.48
  Q 1347.29 445.27 1359.74 448.05
  C 1369.17 450.16 1377.40 451.76 1386.45 457.32
  Q 1389.35 459.11 1392.20 462.19
  C 1394.55 464.74 1397.43 467.19 1399.10 470.03
  C 1405.72 481.27 1405.53 497.77 1393.44 505.44
  Q 1391.73 506.52 1385.79 508.92
  C 1375.13 513.23 1368.12 506.20 1358.78 502.95
  C 1356.77 502.25 1355.08 500.87 1353.25 500.30
  C 1350.88 499.56 1346.00 498.33 1343.75 499.62
  C 1340.78 501.33 1341.31 505.59 1344.00 507.29
  C 1348.29 509.99 1353.54 511.48 1359.53 512.83
  Q 1376.84 516.73 1391.58 526.65
  Q 1393.06 527.65 1395.26 530.06
  C 1396.84 531.81 1398.74 532.88 1400.06 534.80
  C 1403.61 539.96 1407.63 544.41 1409.22 550.91
  C 1409.71 552.90 1411.46 553.61 1411.71 555.50
  C 1413.00 565.35 1413.58 576.31 1410.23 585.79
  Q 1399.17 617.04 1367.85 626.41
  C 1356.59 629.78 1344.33 630.09 1332.55 628.64
  C 1327.20 627.98 1322.03 625.92 1316.80 624.18
  Q 1295.92 617.20 1284.82 598.92
  Q 1282.19 594.59 1281.54 590.09
  Q 1279.05 572.76 1293.98 563.36
  Q 1303.16 557.58 1313.57 561.07
  Q 1316.24 561.96 1319.84 564.75
  C 1325.61 569.22 1331.98 573.52 1339.01 575.37
  Z
  M 1350.32 578.55
  L 1343.78 578.23
  Q 1336.98 576.85 1330.58 574.29
  Q 1327.34 573.00 1323.98 570.31
  Q 1319.95 567.08 1315.82 563.98
  C 1310.24 559.79 1300.92 561.14 1295.37 564.40
  C 1293.76 565.35 1292.24 567.22 1290.54 568.47
  Q 1288.22 570.18 1287.25 571.75
  C 1284.01 577.00 1283.63 583.04 1283.89 589.74
  C 1284.19 597.67 1290.85 605.33 1296.37 610.42
  Q 1301.33 615.00 1308.95 618.79
  Q 1320.01 624.28 1330.40 626.37
  Q 1343.99 629.10 1358.51 626.72
  Q 1385.33 622.33 1400.40 601.99
  Q 1406.57 593.66 1409.15 584.14
  Q 1413.88 566.71 1407.35 549.01
  Q 1406.15 545.76 1403.75 542.84
  C 1401.39 539.96 1400.00 537.63 1398.23 534.77
  A 1.73 1.65 -1.3 0 0 1397.54 534.14
  Q 1394.55 532.67 1392.96 529.76
  Q 1392.71 529.29 1392.24 529.04
  Q 1388.54 527.04 1385.11 524.57
  C 1380.03 520.91 1374.20 519.14 1368.55 516.80
  Q 1364.65 515.20 1359.81 514.20
  Q 1352.30 512.66 1348.26 510.93
  Q 1345.18 509.62 1342.70 507.30
  C 1339.03 503.88 1340.34 498.31 1345.75 497.91
  Q 1348.66 497.70 1350.95 497.90
  C 1353.86 498.14 1356.54 499.68 1359.46 500.79
  Q 1361.14 501.43 1362.80 502.63
  Q 1367.21 505.82 1371.74 507.03
  Q 1385.98 510.81 1395.70 501.29
  Q 1399.25 497.81 1400.76 493.39
  C 1403.04 486.72 1402.56 476.75 1398.29 471.01
  C 1393.87 465.09 1387.94 459.11 1381.04 456.61
  C 1378.31 455.62 1376.07 453.75 1373.51 453.05
  C 1367.17 451.29 1359.11 449.60 1352.39 449.38
  Q 1338.99 448.94 1326.21 452.99
  Q 1324.64 453.48 1322.50 454.70
  C 1319.48 456.41 1315.71 457.64 1313.25 459.16
  C 1309.12 461.73 1304.61 464.87 1301.70 468.83
  C 1299.67 471.60 1297.10 473.61 1295.66 476.61
  C 1293.47 481.20 1290.84 486.52 1290.17 491.60
  Q 1289.80 494.44 1289.35 497.27
  Q 1288.51 502.55 1288.68 505.81
  Q 1289.34 518.39 1296.05 529.07
  C 1297.70 531.70 1300.37 534.47 1302.37 537.37
  Q 1304.35 540.24 1308.38 542.21
  Q 1314.57 545.23 1314.85 545.41
  C 1319.29 548.07 1323.22 551.17 1328.07 552.92
  Q 1341.11 557.61 1354.21 562.12
  Q 1358.48 563.58 1360.24 567.41
  C 1363.09 573.59 1355.06 577.66 1350.32 578.55
  Z"
/>
<path fill="#ffffff" d="
  M 1696.28 559.54
  C 1696.31 564.24 1700.94 568.12 1704.24 571.05
  C 1708.46 574.80 1714.46 577.21 1719.49 578.93
  C 1731.85 583.15 1746.11 577.85 1754.83 568.83
  C 1757.49 566.08 1759.55 562.54 1762.78 560.82
  Q 1768.25 557.91 1773.76 559.02
  Q 1793.67 563.05 1797.16 582.65
  C 1799.10 593.56 1790.95 601.12 1784.15 608.33
  Q 1779.36 613.43 1774.07 616.77
  C 1758.25 626.78 1739.81 630.63 1721.20 629.35
  C 1702.90 628.10 1685.85 621.47 1672.01 609.51
  Q 1664.42 602.95 1657.01 594.23
  Q 1653.98 590.67 1651.88 586.29
  Q 1647.54 577.26 1643.81 567.78
  A 1.35 1.35 0.0 0 0 1641.20 568.28
  C 1641.23 586.11 1643.54 608.20 1627.79 621.11
  Q 1616.85 630.08 1602.51 624.53
  Q 1599.04 623.19 1596.63 621.30
  C 1592.02 617.71 1587.97 611.97 1586.01 606.37
  Q 1584.71 602.67 1584.68 596.46
  Q 1584.40 543.85 1584.08 491.25
  C 1584.03 482.53 1586.59 474.01 1591.98 467.53
  C 1599.29 458.76 1612.26 456.91 1622.77 460.46
  Q 1625.95 461.54 1628.54 464.18
  C 1634.91 470.68 1641.99 481.45 1641.18 491.01
  Q 1640.45 499.62 1641.20 507.77
  A 1.46 1.45 51.4 0 0 1644.03 508.09
  C 1645.09 504.82 1645.74 501.48 1647.37 498.43
  C 1649.89 493.71 1652.31 488.40 1655.08 484.29
  Q 1669.78 462.45 1694.41 453.32
  Q 1698.27 451.89 1704.77 450.43
  C 1709.43 449.39 1714.26 448.06 1718.81 447.63
  Q 1728.01 446.74 1733.51 447.97
  C 1739.94 449.41 1746.99 450.63 1752.72 452.72
  Q 1774.91 460.78 1788.92 480.26
  C 1791.68 484.10 1794.54 487.63 1796.28 492.03
  C 1800.36 502.31 1803.86 511.00 1799.93 522.12
  C 1798.93 524.96 1798.38 527.95 1796.95 530.49
  C 1791.19 540.68 1783.67 544.58 1773.35 550.33
  Q 1768.75 552.90 1764.34 554.28
  Q 1762.43 554.87 1756.78 556.76
  Q 1752.06 558.33 1746.75 558.49
  Q 1724.48 559.16 1704.73 558.41
  C 1702.16 558.31 1699.39 558.72 1696.85 558.92
  Q 1696.28 558.97 1696.28 559.54
  Z
  M 1798.83 519.22
  L 1798.91 507.28
  Q 1797.78 499.70 1794.99 492.56
  C 1793.63 489.08 1790.94 486.30 1788.91 482.99
  Q 1786.16 478.50 1784.13 476.29
  Q 1775.68 467.06 1766.31 460.68
  C 1762.11 457.82 1756.94 456.66 1752.15 454.57
  Q 1749.92 453.59 1746.45 452.70
  Q 1730.12 448.50 1716.27 450.04
  C 1710.61 450.67 1701.98 452.09 1695.68 454.85
  C 1690.96 456.91 1686.08 458.07 1681.99 460.55
  Q 1671.46 466.97 1663.31 476.26
  C 1661.04 478.85 1658.86 482.45 1656.34 485.40
  Q 1654.08 488.03 1652.91 490.58
  C 1649.44 498.10 1645.70 505.49 1644.12 513.48
  Q 1639.31 537.82 1643.84 562.48
  C 1645.41 571.02 1649.62 578.09 1653.36 585.78
  C 1655.57 590.32 1660.02 596.74 1663.93 599.95
  C 1667.05 602.50 1670.33 606.38 1672.56 608.27
  Q 1682.55 616.72 1694.70 621.59
  C 1698.79 623.23 1703.47 624.34 1707.96 625.53
  C 1717.92 628.18 1728.07 628.62 1738.27 627.63
  C 1744.71 627.00 1751.33 624.81 1757.73 622.89
  Q 1761.60 621.73 1765.07 619.77
  Q 1770.82 616.53 1771.27 616.29
  C 1777.67 612.78 1783.08 607.44 1788.01 602.10
  C 1794.18 595.41 1797.36 589.47 1795.52 580.61
  Q 1794.90 577.66 1792.58 574.16
  Q 1789.61 569.68 1788.42 568.32
  C 1783.10 562.20 1770.60 556.90 1762.64 562.06
  Q 1760.92 563.17 1758.68 566.27
  Q 1751.61 576.06 1740.57 579.79
  C 1732.68 582.45 1721.36 582.74 1713.62 578.54
  C 1710.30 576.74 1707.26 575.79 1704.48 573.19
  Q 1701.88 570.76 1699.29 568.31
  C 1696.26 565.46 1694.63 562.15 1693.25 558.48
  Q 1692.53 556.55 1694.60 556.60
  Q 1720.71 557.20 1745.65 556.69
  Q 1751.45 556.57 1760.67 554.01
  Q 1765.79 552.58 1771.15 549.68
  Q 1778.51 545.69 1785.76 541.50
  C 1789.00 539.63 1790.44 536.89 1792.76 534.10
  C 1796.51 529.61 1797.83 524.73 1798.83 519.22
  Z
  M 1613.37 624.86
  Q 1621.39 624.38 1626.23 620.76
  Q 1633.58 615.26 1636.52 606.46
  Q 1638.13 601.64 1638.29 591.38
  C 1638.72 564.03 1637.99 536.09 1638.51 510.75
  Q 1638.76 498.62 1638.01 486.52
  C 1637.78 482.70 1636.59 476.45 1634.98 473.80
  C 1634.18 472.50 1632.38 471.37 1631.27 469.55
  Q 1629.86 467.24 1627.21 465.29
  C 1617.64 458.28 1607.72 458.70 1597.90 464.66
  Q 1594.28 466.87 1592.09 469.99
  Q 1585.96 478.71 1585.96 489.01
  Q 1585.97 541.42 1585.99 593.85
  Q 1585.99 600.41 1587.18 604.54
  Q 1588.77 610.11 1591.63 614.49
  Q 1598.98 625.72 1613.37 624.86
  Z"
/>
<path fill="#00366a" d="
  M 1214.38 465.15
  Q 1215.76 465.29 1216.06 463.93
  Q 1216.99 459.65 1220.18 456.80
  C 1222.33 454.87 1224.58 452.06 1227.75 450.79
  Q 1242.18 445.05 1255.08 453.37
  Q 1255.59 453.70 1256.45 455.22
  C 1257.94 457.85 1260.91 459.21 1261.96 461.54
  Q 1264.97 468.21 1264.93 478.25
  Q 1264.70 532.19 1264.61 586.12
  C 1264.59 596.97 1265.42 608.07 1258.66 615.52
  C 1256.68 617.70 1255.31 619.90 1252.71 621.32
  Q 1240.88 627.78 1227.98 622.54
  Q 1225.17 621.40 1219.98 615.97
  C 1218.54 614.46 1217.65 612.25 1216.26 610.84
  Q 1214.69 609.24 1213.17 610.89
  Q 1207.35 617.26 1200.05 620.99
  Q 1196.27 622.93 1189.67 624.50
  C 1182.03 626.32 1175.78 627.81 1166.90 627.13
  C 1160.90 626.67 1154.64 625.10 1148.51 623.81
  Q 1143.42 622.74 1138.75 620.71
  Q 1131.63 617.60 1128.94 616.27
  Q 1118.89 611.27 1111.49 602.92
  C 1109.47 600.64 1106.71 599.40 1105.01 596.96
  Q 1095.12 582.78 1090.24 570.55
  Q 1086.36 560.82 1085.74 547.26
  Q 1084.99 531.02 1088.78 515.40
  Q 1090.24 509.39 1093.46 502.21
  Q 1097.04 494.24 1099.60 489.58
  C 1101.18 486.70 1104.49 484.52 1106.49 481.82
  C 1115.34 469.84 1127.78 460.37 1142.23 456.29
  C 1145.67 455.32 1149.68 453.30 1153.29 452.88
  C 1159.32 452.17 1165.51 450.95 1171.28 451.06
  C 1178.85 451.20 1186.10 451.66 1193.36 454.54
  Q 1197.75 456.28 1202.16 457.94
  Q 1207.92 460.11 1212.56 464.11
  Q 1213.69 465.08 1214.38 465.15
  Z
  M 1169.20 577.82
  Q 1174.22 580.44 1180.34 577.65
  Q 1197.33 574.28 1206.36 560.19
  Q 1209.53 555.25 1210.54 549.19
  C 1212.00 540.45 1211.67 530.30 1207.33 522.37
  Q 1204.37 516.96 1200.62 513.64
  Q 1198.85 512.07 1193.58 508.75
  Q 1189.62 506.24 1185.88 505.19
  Q 1162.42 498.58 1146.00 515.72
  C 1140.74 521.21 1136.54 534.04 1136.93 541.48
  Q 1137.34 549.11 1140.19 556.20
  Q 1141.97 560.62 1145.35 564.72
  C 1151.58 572.27 1158.91 575.47 1169.20 577.82
  Z"
/>
<path fill="#00366a" d="
  M 1343.78 578.23
  Q 1347.06 579.97 1350.32 578.55
  C 1355.06 577.66 1363.09 573.59 1360.24 567.41
  Q 1358.48 563.58 1354.21 562.12
  Q 1341.11 557.61 1328.07 552.92
  C 1323.22 551.17 1319.29 548.07 1314.85 545.41
  Q 1314.57 545.23 1308.38 542.21
  Q 1304.35 540.24 1302.37 537.37
  C 1300.37 534.47 1297.70 531.70 1296.05 529.07
  Q 1289.34 518.39 1288.68 505.81
  Q 1288.51 502.55 1289.35 497.27
  Q 1289.80 494.44 1290.17 491.60
  C 1290.84 486.52 1293.47 481.20 1295.66 476.61
  C 1297.10 473.61 1299.67 471.60 1301.70 468.83
  C 1304.61 464.87 1309.12 461.73 1313.25 459.16
  C 1315.71 457.64 1319.48 456.41 1322.50 454.70
  Q 1324.64 453.48 1326.21 452.99
  Q 1338.99 448.94 1352.39 449.38
  C 1359.11 449.60 1367.17 451.29 1373.51 453.05
  C 1376.07 453.75 1378.31 455.62 1381.04 456.61
  C 1387.94 459.11 1393.87 465.09 1398.29 471.01
  C 1402.56 476.75 1403.04 486.72 1400.76 493.39
  Q 1399.25 497.81 1395.70 501.29
  Q 1385.98 510.81 1371.74 507.03
  Q 1367.21 505.82 1362.80 502.63
  Q 1361.14 501.43 1359.46 500.79
  C 1356.54 499.68 1353.86 498.14 1350.95 497.90
  Q 1348.66 497.70 1345.75 497.91
  C 1340.34 498.31 1339.03 503.88 1342.70 507.30
  Q 1345.18 509.62 1348.26 510.93
  Q 1352.30 512.66 1359.81 514.20
  Q 1364.65 515.20 1368.55 516.80
  C 1374.20 519.14 1380.03 520.91 1385.11 524.57
  Q 1388.54 527.04 1392.24 529.04
  Q 1392.71 529.29 1392.96 529.76
  Q 1394.55 532.67 1397.54 534.14
  A 1.73 1.65 -1.3 0 1 1398.23 534.77
  C 1400.00 537.63 1401.39 539.96 1403.75 542.84
  Q 1406.15 545.76 1407.35 549.01
  Q 1413.88 566.71 1409.15 584.14
  Q 1406.57 593.66 1400.40 601.99
  Q 1385.33 622.33 1358.51 626.72
  Q 1343.99 629.10 1330.40 626.37
  Q 1320.01 624.28 1308.95 618.79
  Q 1301.33 615.00 1296.37 610.42
  C 1290.85 605.33 1284.19 597.67 1283.89 589.74
  C 1283.63 583.04 1284.01 577.00 1287.25 571.75
  Q 1288.22 570.18 1290.54 568.47
  C 1292.24 567.22 1293.76 565.35 1295.37 564.40
  C 1300.92 561.14 1310.24 559.79 1315.82 563.98
  Q 1319.95 567.08 1323.98 570.31
  Q 1327.34 573.00 1330.58 574.29
  Q 1336.98 576.85 1343.78 578.23
  Z"
/>
<path fill="#00366a" d="
  M 1798.91 507.28
  L 1798.83 519.22
  C 1797.83 524.73 1796.51 529.61 1792.76 534.10
  C 1790.44 536.89 1789.00 539.63 1785.76 541.50
  Q 1778.51 545.69 1771.15 549.68
  Q 1765.79 552.58 1760.67 554.01
  Q 1751.45 556.57 1745.65 556.69
  Q 1720.71 557.20 1694.60 556.60
  Q 1692.53 556.55 1693.25 558.48
  C 1694.63 562.15 1696.26 565.46 1699.29 568.31
  Q 1701.88 570.76 1704.48 573.19
  C 1707.26 575.79 1710.30 576.74 1713.62 578.54
  C 1721.36 582.74 1732.68 582.45 1740.57 579.79
  Q 1751.61 576.06 1758.68 566.27
  Q 1760.92 563.17 1762.64 562.06
  C 1770.60 556.90 1783.10 562.20 1788.42 568.32
  Q 1789.61 569.68 1792.58 574.16
  Q 1794.90 577.66 1795.52 580.61
  C 1797.36 589.47 1794.18 595.41 1788.01 602.10
  C 1783.08 607.44 1777.67 612.78 1771.27 616.29
  Q 1770.82 616.53 1765.07 619.77
  Q 1761.60 621.73 1757.73 622.89
  C 1751.33 624.81 1744.71 627.00 1738.27 627.63
  C 1728.07 628.62 1717.92 628.18 1707.96 625.53
  C 1703.47 624.34 1698.79 623.23 1694.70 621.59
  Q 1682.55 616.72 1672.56 608.27
  C 1670.33 606.38 1667.05 602.50 1663.93 599.95
  C 1660.02 596.74 1655.57 590.32 1653.36 585.78
  C 1649.62 578.09 1645.41 571.02 1643.84 562.48
  Q 1639.31 537.82 1644.12 513.48
  C 1645.70 505.49 1649.44 498.10 1652.91 490.58
  Q 1654.08 488.03 1656.34 485.40
  C 1658.86 482.45 1661.04 478.85 1663.31 476.26
  Q 1671.46 466.97 1681.99 460.55
  C 1686.08 458.07 1690.96 456.91 1695.68 454.85
  C 1701.98 452.09 1710.61 450.67 1716.27 450.04
  Q 1730.12 448.50 1746.45 452.70
  Q 1749.92 453.59 1752.15 454.57
  C 1756.94 456.66 1762.11 457.82 1766.31 460.68
  Q 1775.68 467.06 1784.13 476.29
  Q 1786.16 478.50 1788.91 482.99
  C 1790.94 486.30 1793.63 489.08 1794.99 492.56
  Q 1797.78 499.70 1798.91 507.28
  Z
  M 1720.24 516.05
  C 1728.54 515.44 1733.94 515.05 1740.50 512.62
  C 1746.28 510.47 1747.79 503.67 1741.98 500.55
  C 1735.15 496.88 1726.68 494.68 1719.48 496.38
  Q 1714.03 497.66 1708.91 499.91
  C 1705.97 501.20 1703.71 503.49 1701.02 505.40
  C 1697.29 508.05 1695.40 512.27 1693.32 516.18
  Q 1693.06 516.69 1693.63 516.70
  Q 1706.97 517.03 1720.24 516.05
  Z"
/>
<path fill="#6a758a" d="
  M 1506.77 453.10
  L 1492.37 454.80
  Q 1498.87 451.95 1506.77 453.10
  Z"
/>
<path fill="#00366a" d="
  M 1613.37 624.86
  Q 1598.98 625.72 1591.63 614.49
  Q 1588.77 610.11 1587.18 604.54
  Q 1585.99 600.41 1585.99 593.85
  Q 1585.97 541.42 1585.96 489.01
  Q 1585.96 478.71 1592.09 469.99
  Q 1594.28 466.87 1597.90 464.66
  C 1607.72 458.70 1617.64 458.28 1627.21 465.29
  Q 1629.86 467.24 1631.27 469.55
  C 1632.38 471.37 1634.18 472.50 1634.98 473.80
  C 1636.59 476.45 1637.78 482.70 1638.01 486.52
  Q 1638.76 498.62 1638.51 510.75
  C 1637.99 536.09 1638.72 564.03 1638.29 591.38
  Q 1638.13 601.64 1636.52 606.46
  Q 1633.58 615.26 1626.23 620.76
  Q 1621.39 624.38 1613.37 624.86
  Z"
/>
<path fill="#ffffff" d="
  M 1720.24 516.05
  Q 1706.97 517.03 1693.63 516.70
  Q 1693.06 516.69 1693.32 516.18
  C 1695.40 512.27 1697.29 508.05 1701.02 505.40
  C 1703.71 503.49 1705.97 501.20 1708.91 499.91
  Q 1714.03 497.66 1719.48 496.38
  C 1726.68 494.68 1735.15 496.88 1741.98 500.55
  C 1747.79 503.67 1746.28 510.47 1740.50 512.62
  C 1733.94 515.05 1728.54 515.44 1720.24 516.05
  Z
  M 1727.37 497.40
  C 1718.46 497.24 1701.28 502.90 1698.89 513.01
  Q 1698.77 513.51 1699.14 513.87
  Q 1700.28 514.98 1702.00 514.95
  Q 1714.94 514.69 1727.87 514.46
  C 1732.21 514.38 1744.28 511.21 1743.68 505.31
  Q 1743.63 504.81 1743.22 504.51
  C 1737.94 500.69 1733.58 497.51 1727.37 497.40
  Z"
/>
<path fill="#ffffff" d="
  M 565.45 571.60
  C 563.48 574.93 564.60 578.13 564.53 581.07
  Q 564.03 603.00 556.99 620.49
  Q 555.14 625.08 548.58 637.46
  C 545.98 642.37 542.58 646.61 539.37 651.23
  Q 535.44 656.89 531.63 660.88
  C 521.37 671.64 511.02 680.50 499.72 686.67
  Q 478.25 698.40 452.50 704.47
  Q 445.97 706.01 436.27 706.71
  Q 387.42 710.26 348.12 684.37
  C 339.40 678.62 330.98 671.27 323.13 663.86
  Q 312.47 653.78 304.64 640.89
  Q 315.70 641.22 324.99 640.93
  C 337.02 640.55 334.66 622.26 325.24 622.27
  Q 318.70 622.27 312.08 622.23
  C 304.69 622.19 300.94 623.71 299.37 631.10
  Q 297.44 630.67 295.96 627.55
  Q 287.11 608.89 283.60 590.43
  Q 281.88 581.41 282.41 567.31
  Q 282.64 566.18 283.14 564.77
  Q 283.59 563.46 283.71 562.21
  C 288.51 512.90 349.21 480.57 388.72 517.12
  C 397.02 524.80 402.03 534.66 407.44 542.77
  C 412.10 549.76 420.78 550.66 427.17 545.43
  Q 429.07 543.88 431.69 539.50
  Q 438.08 528.80 444.68 521.46
  C 457.86 506.80 476.89 499.54 496.48 501.13
  Q 522.34 503.22 541.49 522.75
  Q 559.08 540.70 561.95 564.74
  Q 562.35 568.06 565.45 571.60
  Z
  M 339.94 617.58
  C 375.13 634.24 409.06 595.35 390.23 561.95
  C 380.61 544.88 358.98 536.42 340.74 544.92
  Q 337.89 546.25 336.38 548.17
  A 1.66 1.66 0.0 0 0 337.81 550.85
  C 340.96 550.61 344.46 550.02 347.37 550.81
  Q 353.58 552.49 357.00 558.25
  C 367.84 576.52 338.92 592.87 329.48 573.33
  C 327.96 570.20 328.29 566.70 328.53 563.24
  Q 328.57 562.71 328.04 562.59
  L 323.81 561.64
  A 1.34 1.34 0.0 0 0 322.39 562.24
  Q 315.73 573.06 317.22 585.75
  Q 319.85 608.06 339.94 617.58
  Z
  M 478.75 550.21
  C 494.29 551.27 496.77 573.66 483.25 580.27
  C 474.62 584.49 465.15 580.50 461.91 571.32
  C 461.01 568.80 461.39 566.34 461.77 563.71
  A 0.68 0.68 0.0 0 0 461.23 562.94
  L 456.07 561.92
  A 0.69 0.68 -67.2 0 0 455.35 562.22
  Q 450.87 569.11 450.18 575.75
  Q 447.34 603.11 471.25 616.75
  C 488.63 626.67 510.38 620.26 520.98 603.95
  C 531.80 587.30 529.73 566.44 515.05 552.47
  C 503.04 541.04 482.57 536.80 468.88 548.42
  A 1.35 1.35 0.0 0 0 469.76 550.79
  C 472.74 550.77 476.20 550.04 478.75 550.21
  Z
  M 543.4950 631.3910
  A 8.78 8.78 0.0 0 0 534.8229 622.5044
  L 519.4841 622.3170
  A 8.78 8.78 0.0 0 0 510.5975 630.9891
  L 510.5850 632.0090
  A 8.78 8.78 0.0 0 0 519.2571 640.8956
  L 534.5959 641.0830
  A 8.78 8.78 0.0 0 0 543.4825 632.4109
  L 543.4950 631.3910
  Z
  M 410.12 649.56
  C 401.93 645.65 403.78 637.05 397.88 631.89
  C 392.13 626.87 382.75 629.99 381.06 637.31
  C 377.96 650.85 388.98 664.82 399.81 670.09
  C 420.73 680.27 447.56 670.12 453.02 646.26
  C 454.70 638.90 450.97 627.67 441.35 629.73
  C 433.64 631.37 433.16 640.41 429.17 645.50
  C 424.82 651.06 416.45 652.58 410.12 649.56
  Z"
/>
<path fill="#ffffff" d="
  M 1180.34 577.65
  Q 1174.74 579.12 1169.20 577.82
  C 1158.91 575.47 1151.58 572.27 1145.35 564.72
  Q 1141.97 560.62 1140.19 556.20
  Q 1137.34 549.11 1136.93 541.48
  C 1136.54 534.04 1140.74 521.21 1146.00 515.72
  Q 1162.42 498.58 1185.88 505.19
  Q 1189.62 506.24 1193.58 508.75
  Q 1198.85 512.07 1200.62 513.64
  Q 1204.37 516.96 1207.33 522.37
  C 1211.67 530.30 1212.00 540.45 1210.54 549.19
  Q 1209.53 555.25 1206.36 560.19
  Q 1197.33 574.28 1180.34 577.65
  Z
  M 1209.62 534.63
  Q 1207.76 523.66 1200.85 516.67
  Q 1185.92 501.55 1165.86 506.37
  C 1157.98 508.26 1149.78 513.15 1145.35 519.72
  Q 1137.66 531.13 1139.31 546.27
  Q 1140.93 561.14 1152.96 569.31
  C 1161.31 574.98 1171.77 577.99 1181.72 575.80
  Q 1193.87 573.12 1202.06 562.76
  Q 1212.22 549.91 1209.62 534.63
  Z"
/>
<path fill="#1d3e65" d="
  M 1798.91 507.28
  L 1798.83 519.22
  L 1798.91 507.28
  Z"
/>
<path fill="#2cdeea" d="
  M 608.98 601.81
  Q 610.26 596.58 612.34 592.02
  C 618.03 579.55 623.06 566.74 628.35 554.09
  Q 634.01 540.56 640.78 526.74
  L 668.43 526.51
  A 0.41 0.40 -78.0 0 1 668.80 527.09
  L 635.09 599.52
  A 3.44 3.44 0.0 0 1 632.02 601.51
  L 608.98 601.81
  Z"
/>
<path fill="#1d3e65" d="
  M 339.94 617.58
  Q 319.85 608.06 317.22 585.75
  Q 315.73 573.06 322.39 562.24
  A 1.34 1.34 0.0 0 1 323.81 561.64
  L 328.04 562.59
  Q 328.57 562.71 328.53 563.24
  C 328.29 566.70 327.96 570.20 329.48 573.33
  C 338.92 592.87 367.84 576.52 357.00 558.25
  Q 353.58 552.49 347.37 550.81
  C 344.46 550.02 340.96 550.61 337.81 550.85
  A 1.66 1.66 0.0 0 1 336.38 548.17
  Q 337.89 546.25 340.74 544.92
  C 358.98 536.42 380.61 544.88 390.23 561.95
  C 409.06 595.35 375.13 634.24 339.94 617.58
  Z
  M 372.48 596.66
  A 9.37 9.37 0.0 0 0 363.11 587.29
  A 9.37 9.37 0.0 0 0 353.74 596.66
  A 9.37 9.37 0.0 0 0 363.11 606.03
  A 9.37 9.37 0.0 0 0 372.48 596.66
  Z"
/>
<path fill="#1d3e65" d="
  M 483.25 580.27
  C 496.77 573.66 494.29 551.27 478.75 550.21
  C 476.20 550.04 472.74 550.77 469.76 550.79
  A 1.35 1.35 0.0 0 1 468.88 548.42
  C 482.57 536.80 503.04 541.04 515.05 552.47
  C 529.73 566.44 531.80 587.30 520.98 603.95
  C 510.38 620.26 488.63 626.67 471.25 616.75
  Q 447.34 603.11 450.18 575.75
  Q 450.87 569.11 455.35 562.22
  A 0.69 0.68 -67.2 0 1 456.07 561.92
  L 461.23 562.94
  A 0.68 0.68 0.0 0 1 461.77 563.71
  C 461.39 566.34 461.01 568.80 461.91 571.32
  C 465.15 580.50 474.62 584.49 483.25 580.27
  Z
  M 504.69 596.58
  A 9.46 9.46 0.0 0 0 495.23 587.12
  A 9.46 9.46 0.0 0 0 485.77 596.58
  A 9.46 9.46 0.0 0 0 495.23 606.04
  A 9.46 9.46 0.0 0 0 504.69 596.58
  Z"
/>
<rect fill="#1d3e65" x="-14.77" y="-11.79" transform="translate(716.38,558.71) rotate(-0.9)" width="29.54" height="23.58" rx="10.97"/>
<path fill="#dffbf5" d="
  M 282.41 567.31
  Q 281.88 581.41 283.60 590.43
  Q 287.11 608.89 295.96 627.55
  Q 297.44 630.67 299.37 631.10
  Q 300.01 636.60 304.64 640.89
  Q 312.47 653.78 323.13 663.86
  C 330.98 671.27 339.40 678.62 348.12 684.37
  Q 387.42 710.26 436.27 706.71
  Q 445.97 706.01 452.50 704.47
  Q 478.25 698.40 499.72 686.67
  C 511.02 680.50 521.37 671.64 531.63 660.88
  Q 535.44 656.89 539.37 651.23
  C 542.58 646.61 545.98 642.37 548.58 637.46
  Q 555.14 625.08 556.99 620.49
  Q 564.03 603.00 564.53 581.07
  C 564.60 578.13 563.48 574.93 565.45 571.60
  Q 569.54 575.68 574.50 575.46
  Q 581.94 575.14 586.58 567.22
  Q 586.63 582.37 584.09 596.88
  Q 583.96 597.59 583.19 600.54
  Q 582.57 602.91 582.91 604.35
  Q 576.88 612.19 578.93 620.38
  Q 571.15 640.31 556.17 657.67
  Q 539.89 676.52 520.68 689.16
  C 477.67 717.46 421.77 726.75 370.66 718.51
  Q 367.83 717.74 365.02 716.44
  C 311.42 691.63 270.90 635.98 269.22 575.95
  Q 269.19 574.70 270.44 574.77
  Q 278.22 575.19 282.41 567.31
  Z"
/>
<path fill="#1d3e65" d="
  M 1169.20 577.82
  Q 1174.74 579.12 1180.34 577.65
  Q 1174.22 580.44 1169.20 577.82
  Z"
/>
<path fill="#1d3e65" d="
  M 1343.78 578.23
  L 1350.32 578.55
  Q 1347.06 579.97 1343.78 578.23
  Z"
/>
<circle fill="#ffffff" cx="495.23" cy="596.58" r="9.46"/>
<circle fill="#ffffff" cx="363.11" cy="596.66" r="9.37"/>
<path fill="#2cdeea" d="
  M 578.93 620.38
  C 581.41 627.73 586.79 629.49 594.46 629.61
  Q 605.13 629.78 615.57 629.30
  A 0.64 0.64 0.0 0 1 616.15 630.27
  C 605.00 648.85 591.54 664.58 576.19 679.59
  Q 546.00 709.12 507.70 722.94
  Q 494.15 727.83 473.23 731.32
  Q 437.07 737.36 399.26 728.24
  Q 382.46 724.19 370.66 718.51
  C 421.77 726.75 477.67 717.46 520.68 689.16
  Q 539.89 676.52 556.17 657.67
  Q 571.15 640.31 578.93 620.38
  Z"
/>
<path fill="#62f7fe" d="
  M 304.64 640.89
  Q 300.01 636.60 299.37 631.10
  C 300.94 623.71 304.69 622.19 312.08 622.23
  Q 318.70 622.27 325.24 622.27
  C 334.66 622.26 337.02 640.55 324.99 640.93
  Q 315.70 641.22 304.64 640.89
  Z"
/>
<rect fill="#62f7fe" x="-16.45" y="-9.29" transform="translate(527.04,631.70) rotate(0.7)" width="32.90" height="18.58" rx="8.78"/>
<path fill="#1d3e65" d="
  M 410.12 649.56
  C 416.45 652.58 424.82 651.06 429.17 645.50
  C 433.16 640.41 433.64 631.37 441.35 629.73
  C 450.97 627.67 454.70 638.90 453.02 646.26
  C 447.56 670.12 420.73 680.27 399.81 670.09
  C 388.98 664.82 377.96 650.85 381.06 637.31
  C 382.75 629.99 392.13 626.87 397.88 631.89
  C 403.78 637.05 401.93 645.65 410.12 649.56
  Z"
/>
<ellipse fill="#1d3e65" cx="0.00" cy="0.00" transform="translate(233.38,780.46) rotate(-0.2)" rx="2.66" ry="0.33"/>
</svg>
