<svg  viewBox="0 0 790 130" fill="none" xmlns="http://www.w3.org/2000/svg">
<g filter="url(#filter0_d_260_5433)">
<path d="M723.102 17.0378H67.8066C43.131 17.0378 23.1274 35.859 23.1274 59.0762C23.1274 82.2933 43.131 101.114 67.8066 101.114H723.102C747.777 101.114 767.781 82.2933 767.781 59.0762C767.781 35.859 747.777 17.0378 723.102 17.0378Z" fill="#CDEDFB"/>
<path d="M731.293 101.871C738.511 100.834 745.392 97.957 751.279 93.856C752.808 92.8938 754.119 91.67 755.499 90.5396C756.214 89.9884 756.78 89.3065 757.425 88.6899C758.041 88.0453 758.696 87.4381 759.282 86.7655L760.96 84.701L761.794 83.664L762.529 82.5617L763.988 80.3476C764.465 79.6003 764.822 78.8062 765.249 78.0309C771.951 65.5782 771.474 50.0707 764.375 37.7301C760.771 31.5925 755.658 26.249 749.512 22.2413C743.307 18.3178 736.118 15.7674 728.682 14.8987C727.758 14.7212 726.815 14.7585 725.882 14.6838L723.082 14.5437L717.77 14.525L707.146 14.497C700.067 14.4876 692.978 14.4689 685.899 14.4596C629.216 14.3849 572.414 14.5156 515.651 14.6091C435.397 14.7398 354.379 14.9921 273.837 15.4405C243.098 15.0668 212.389 14.6838 181.54 14.3101C146.909 13.9364 112.972 13.9925 78.1127 14.0205H71.4804L68.1642 14.0299C67.0323 14.0485 65.8111 14.1326 64.6395 14.1793L62.8622 14.2727L61.1049 14.525C59.9432 14.7118 58.7518 14.8146 57.6 15.0855L54.1548 15.9169C53.003 16.1972 51.9208 16.6549 50.7989 17.0099C46.3905 18.6167 42.1609 20.7467 38.4674 23.5492C37.4944 24.1845 36.6306 24.9505 35.7569 25.6978C34.8931 26.4545 33.9697 27.1645 33.2052 28.0146L30.8322 30.4995L28.7075 33.1713L28.1813 33.8439C28.0125 34.0775 27.8735 34.3204 27.7146 34.5539L26.7912 35.9832L25.8778 37.4125C25.5799 37.8889 25.3516 38.4121 25.0835 38.9072C24.5871 39.9161 24.0211 40.897 23.5843 41.934L22.363 45.0728C22.1446 45.5866 22.0056 46.1285 21.8567 46.6703L21.4198 48.2864L20.9829 49.9026C20.8737 50.4537 20.7943 51.0049 20.7049 51.5561C20.5461 52.6584 20.3078 53.7514 20.2184 54.8631L20.0397 58.1981L20 59.0295L20.0397 59.861L20.1291 61.5238C20.1886 62.6355 20.2184 63.7472 20.4369 64.8402L20.9829 68.1379L21.8666 71.3701C22.1148 72.4631 22.5914 73.4907 22.9786 74.537C23.3857 75.5833 23.763 76.6389 24.319 77.6292C24.8353 78.6288 25.3317 79.6377 25.8778 80.6279L27.7245 83.4772C30.3457 87.1765 33.4534 90.577 37.0774 93.4356C40.7312 96.2568 44.7821 98.611 49.1209 100.395C53.4995 102.077 58.1064 103.188 62.8027 103.702C67.638 104.048 71.9371 103.917 76.3752 103.926L129.444 103.833C182.394 103.721 235.354 103.618 288.294 103.506C312.311 103.6 336.339 103.684 360.406 103.777C417.526 103.955 476.264 104.235 533.146 103.637C593.512 103.011 652.995 102.152 713.848 101.834C720.282 101.871 723.32 101.442 723.062 101.012C723.32 100.582 720.282 100.162 713.848 100.19C654.415 99.8815 596.233 99.0781 537.316 98.4335C479.064 97.7889 418.946 98.0691 360.406 98.2466C302.283 98.4241 244.399 98.6764 186.405 99.0594C157.413 99.2275 128.431 99.405 99.3999 99.5732C91.1194 99.6105 82.531 99.6479 73.9228 99.6759C71.7782 99.6759 69.6336 99.6946 67.489 99.704C65.4139 99.5919 63.3289 99.6292 61.2935 99.2649L59.7546 99.0594C59.4964 99.022 59.2383 98.994 58.99 98.9566L58.2355 98.7791C57.2327 98.5456 56.2398 98.3214 55.237 98.0972C54.2441 97.8449 53.3009 97.4806 52.3279 97.1817L50.8882 96.7146L49.5081 96.1167C44.8814 94.0989 40.6418 91.315 37.0178 87.9239C33.4236 84.5141 30.4847 80.5065 28.36 76.1532C24.1204 67.4559 23.1474 57.3013 25.9771 48.0809C28.7075 38.8512 35.0023 30.6023 43.4417 25.2214C47.6713 22.5496 52.3974 20.5878 57.332 19.4575C57.9475 19.3173 58.5631 19.1492 59.1787 19.0278L61.0651 18.7568L62.9516 18.4859C63.5771 18.3832 64.2225 18.4112 64.8579 18.3645C66.1387 18.3271 67.3699 18.2057 68.7003 18.2244H72.6321C107.323 18.2617 141.587 18.3738 176.059 18.0001C197.625 17.7386 219.13 17.4863 240.626 17.2341C332.059 17.8227 424.327 18.1216 515.612 18.2711C572.374 18.3645 629.176 18.4953 685.859 18.4205C692.948 18.4112 700.027 18.3925 707.107 18.3832L717.73 18.3551L723.042 18.3365L725.614 18.4486C726.468 18.5139 727.331 18.4672 728.175 18.6261C734.976 19.3827 741.579 21.6528 747.318 25.2027C752.987 28.8367 757.763 33.7038 761.168 39.3276C767.85 50.6219 768.595 65.0083 762.568 76.7791C762.191 77.5077 761.863 78.2644 761.436 78.9744L760.116 81.0763L759.451 82.1226L758.686 83.1128L757.157 85.084C756.621 85.7286 756.015 86.3077 755.449 86.9243C754.854 87.5222 754.337 88.1855 753.672 88.7086C752.391 89.8016 751.18 90.988 749.76 91.9315C744.29 95.9392 737.826 98.8445 730.945 100.012C729.645 100.208 728.513 100.423 727.54 100.61C726.557 100.713 725.733 100.825 725.078 100.937C723.757 101.171 723.092 101.404 723.092 101.619C723.092 101.834 723.767 102.011 725.127 102.114C725.812 102.161 726.666 102.198 727.699 102.198C728.721 102.124 729.913 101.983 731.273 101.806L731.293 101.871Z" fill="#5E9DD0"/>
</g>
<defs>
<filter id="filter0_d_260_5433" x="0" y="0"  filterUnits="userSpaceOnUse" color-interpolation-filters="sRGB">
<feFlood flood-opacity="0" result="BackgroundImageFix"/>
<feColorMatrix in="SourceAlpha" type="matrix" values="0 0 0 0 0 0 0 0 0 0 0 0 0 0 0 0 0 0 127 0" result="hardAlpha"/>
<feOffset dy="6"/>
<feGaussianBlur stdDeviation="10"/>
<feComposite in2="hardAlpha" operator="out"/>
<feColorMatrix type="matrix" values="0 0 0 0 0 0 0 0 0 0 0 0 0 0 0 0 0 0 0.15 0"/>
<feBlend mode="normal" in2="BackgroundImageFix" result="effect1_dropShadow_260_5433"/>
<feBlend mode="normal" in="SourceGraphic" in2="effect1_dropShadow_260_5433" result="shape"/>
</filter>
</defs>
</svg>
